<?xml version="1.0" encoding="UTF-8"?>
<svg xmlns="http://www.w3.org/2000/svg" xmlns:xlink="http://www.w3.org/1999/xlink" width="248px" height="60px" viewBox="0 0 248 60" version="1.1">
<g id="surface1">
<path style=" stroke:none;fill-rule:nonzero;fill:rgb(100%,100%,100%);fill-opacity:1;" d="M 5.699219 0 L 65.699219 0 L 65.699219 60 L 5.699219 60 Z M 5.699219 0 "/>
<path style=" stroke:none;fill-rule:nonzero;fill:rgb(47.058824%,42.745098%,45.098039%);fill-opacity:1;" d="M 6.894531 1.289062 L 25.484375 1.289062 L 25.484375 39.570312 L 6.894531 39.570312 Z M 6.894531 1.289062 "/>
<path style=" stroke:none;fill-rule:nonzero;fill:rgb(100%,63.137255%,0.392157%);fill-opacity:1;" d="M 31.28125 1.289062 L 64.78125 1.289062 L 64.78125 39.570312 L 26.3125 39.570312 L 26.3125 11.226562 L 31.28125 11.226562 Z M 31.28125 1.289062 "/>
<path style=" stroke:none;fill-rule:nonzero;fill:rgb(47.058824%,42.745098%,45.098039%);fill-opacity:1;" d="M 26.3125 40.398438 L 64.78125 40.398438 L 64.78125 58.988281 L 26.3125 58.988281 Z M 26.3125 40.398438 "/>
<path style=" stroke:none;fill-rule:nonzero;fill:rgb(100%,63.137255%,0.392157%);fill-opacity:1;" d="M 6.894531 40.398438 L 25.484375 40.398438 L 25.484375 53.375 L 24.011719 53.375 L 24.011719 58.988281 L 6.894531 58.988281 Z M 6.894531 40.398438 "/>
<path style=" stroke:none;fill-rule:nonzero;fill:rgb(100%,100%,100%);fill-opacity:1;" d="M 86.316406 50.753906 L 86.398438 50.753906 C 86.570312 50.753906 86.703125 50.796875 86.789062 50.886719 C 86.878906 50.972656 86.925781 51.101562 86.925781 51.269531 C 86.925781 51.457031 86.875 51.59375 86.78125 51.675781 C 86.6875 51.757812 86.535156 51.800781 86.316406 51.800781 L 84.875 51.800781 C 84.65625 51.800781 84.5 51.761719 84.40625 51.679688 C 84.316406 51.597656 84.269531 51.460938 84.269531 51.269531 C 84.269531 51.082031 84.316406 50.953125 84.40625 50.871094 C 84.5 50.792969 84.65625 50.753906 84.875 50.753906 L 85.042969 50.753906 L 84.847656 50.191406 L 82.78125 50.191406 L 82.574219 50.753906 L 82.742188 50.753906 C 82.960938 50.753906 83.113281 50.792969 83.207031 50.875 C 83.300781 50.957031 83.351562 51.085938 83.351562 51.269531 C 83.351562 51.457031 83.300781 51.59375 83.207031 51.675781 C 83.113281 51.757812 82.960938 51.800781 82.742188 51.800781 L 81.507812 51.800781 C 81.289062 51.800781 81.132812 51.757812 81.039062 51.675781 C 80.945312 51.59375 80.898438 51.457031 80.898438 51.269531 C 80.898438 51.101562 80.945312 50.972656 81.035156 50.886719 C 81.125 50.796875 81.253906 50.753906 81.425781 50.753906 L 81.507812 50.753906 L 82.789062 47.183594 L 82.40625 47.183594 C 82.191406 47.183594 82.035156 47.140625 81.9375 47.058594 C 81.847656 46.976562 81.800781 46.839844 81.800781 46.65625 C 81.800781 46.46875 81.847656 46.332031 81.9375 46.25 C 82.035156 46.167969 82.191406 46.125 82.40625 46.125 L 84.203125 46.125 C 84.484375 46.125 84.683594 46.277344 84.800781 46.585938 L 84.800781 46.597656 Z M 83.808594 47.183594 L 83.117188 49.203125 L 84.503906 49.203125 Z M 83.808594 47.183594 "/>
<path style=" stroke:none;fill-rule:nonzero;fill:rgb(100%,100%,100%);fill-opacity:1;" d="M 89.574219 49.203125 L 89.574219 50.753906 L 90.703125 50.753906 C 90.921875 50.753906 91.074219 50.792969 91.164062 50.871094 C 91.257812 50.953125 91.304688 51.082031 91.304688 51.269531 C 91.304688 51.457031 91.257812 51.59375 91.164062 51.675781 C 91.074219 51.757812 90.921875 51.800781 90.703125 51.800781 L 88.03125 51.800781 C 87.808594 51.800781 87.652344 51.757812 87.5625 51.675781 C 87.46875 51.59375 87.421875 51.457031 87.421875 51.269531 C 87.421875 51.082031 87.46875 50.953125 87.554688 50.871094 C 87.648438 50.792969 87.804688 50.753906 88.03125 50.753906 L 88.394531 50.753906 L 88.394531 48.425781 L 88.1875 48.425781 C 87.972656 48.425781 87.816406 48.386719 87.722656 48.308594 C 87.632812 48.222656 87.589844 48.089844 87.589844 47.898438 C 87.589844 47.710938 87.632812 47.578125 87.71875 47.5 C 87.808594 47.417969 87.964844 47.378906 88.1875 47.378906 L 89.207031 47.378906 C 89.292969 47.378906 89.359375 47.398438 89.40625 47.4375 C 89.457031 47.472656 89.480469 47.519531 89.480469 47.585938 L 89.480469 48.292969 C 89.828125 47.917969 90.152344 47.652344 90.453125 47.492188 C 90.753906 47.332031 91.078125 47.253906 91.425781 47.253906 C 91.742188 47.253906 91.992188 47.324219 92.179688 47.46875 C 92.363281 47.609375 92.457031 47.800781 92.457031 48.039062 C 92.457031 48.222656 92.390625 48.378906 92.265625 48.5 C 92.136719 48.617188 91.972656 48.675781 91.773438 48.675781 C 91.628906 48.675781 91.457031 48.621094 91.261719 48.515625 C 91.066406 48.414062 90.929688 48.359375 90.851562 48.359375 C 90.699219 48.359375 90.519531 48.429688 90.3125 48.566406 C 90.105469 48.703125 89.859375 48.914062 89.574219 49.203125 Z M 89.574219 49.203125 "/>
<path style=" stroke:none;fill-rule:nonzero;fill:rgb(100%,100%,100%);fill-opacity:1;" d="M 97.097656 47.636719 C 97.136719 47.511719 97.195312 47.421875 97.273438 47.359375 C 97.359375 47.296875 97.464844 47.261719 97.589844 47.261719 C 97.761719 47.261719 97.886719 47.316406 97.960938 47.421875 C 98.03125 47.523438 98.070312 47.703125 98.070312 47.957031 L 98.070312 48.742188 C 98.070312 48.9375 98.027344 49.082031 97.949219 49.171875 C 97.871094 49.265625 97.746094 49.3125 97.582031 49.3125 C 97.464844 49.3125 97.363281 49.285156 97.285156 49.230469 C 97.203125 49.175781 97.121094 49.074219 97.03125 48.917969 C 96.902344 48.703125 96.734375 48.542969 96.527344 48.441406 C 96.320312 48.335938 96.066406 48.28125 95.765625 48.28125 C 95.394531 48.28125 95.089844 48.40625 94.847656 48.652344 C 94.613281 48.894531 94.496094 49.203125 94.496094 49.585938 C 94.496094 49.984375 94.617188 50.304688 94.863281 50.546875 C 95.109375 50.789062 95.4375 50.910156 95.855469 50.910156 C 96.230469 50.910156 96.601562 50.804688 96.972656 50.597656 C 97.347656 50.386719 97.574219 50.28125 97.65625 50.28125 C 97.777344 50.28125 97.871094 50.328125 97.949219 50.421875 C 98.027344 50.511719 98.070312 50.625 98.070312 50.761719 C 98.070312 51.0625 97.839844 51.328125 97.386719 51.566406 C 96.933594 51.800781 96.394531 51.917969 95.765625 51.917969 C 94.996094 51.917969 94.367188 51.703125 93.882812 51.269531 C 93.402344 50.835938 93.160156 50.277344 93.160156 49.59375 C 93.160156 48.925781 93.398438 48.371094 93.878906 47.929688 C 94.355469 47.484375 94.957031 47.261719 95.6875 47.261719 C 95.933594 47.261719 96.171875 47.292969 96.402344 47.355469 C 96.636719 47.414062 96.867188 47.507812 97.097656 47.636719 Z M 97.097656 47.636719 "/>
<path style=" stroke:none;fill-rule:nonzero;fill:rgb(100%,100%,100%);fill-opacity:1;" d="M 100.792969 47.863281 C 100.902344 47.667969 101.0625 47.519531 101.265625 47.417969 C 101.46875 47.316406 101.714844 47.261719 101.996094 47.261719 C 102.5 47.261719 102.890625 47.410156 103.160156 47.703125 C 103.433594 47.996094 103.570312 48.417969 103.570312 48.96875 L 103.570312 50.753906 L 103.652344 50.753906 C 103.824219 50.753906 103.949219 50.796875 104.035156 50.886719 C 104.125 50.972656 104.171875 51.101562 104.171875 51.269531 C 104.171875 51.457031 104.125 51.59375 104.03125 51.675781 C 103.941406 51.757812 103.789062 51.800781 103.570312 51.800781 L 102.386719 51.800781 C 102.171875 51.800781 102.019531 51.757812 101.925781 51.675781 C 101.835938 51.59375 101.792969 51.457031 101.792969 51.269531 C 101.792969 51.097656 101.835938 50.96875 101.921875 50.882812 C 102.007812 50.796875 102.136719 50.753906 102.308594 50.753906 L 102.386719 50.753906 L 102.386719 49.359375 C 102.386719 48.953125 102.335938 48.667969 102.230469 48.511719 C 102.132812 48.351562 101.960938 48.273438 101.71875 48.273438 C 101.464844 48.273438 101.246094 48.378906 101.066406 48.585938 C 100.882812 48.789062 100.792969 49.046875 100.792969 49.359375 L 100.792969 50.753906 L 100.867188 50.753906 C 101.039062 50.753906 101.171875 50.796875 101.257812 50.886719 C 101.34375 50.972656 101.390625 51.101562 101.390625 51.269531 C 101.390625 51.457031 101.34375 51.59375 101.25 51.675781 C 101.160156 51.757812 101.003906 51.800781 100.792969 51.800781 L 99.605469 51.800781 C 99.386719 51.800781 99.230469 51.761719 99.140625 51.679688 C 99.050781 51.597656 99.007812 51.460938 99.007812 51.269531 C 99.007812 51.101562 99.050781 50.972656 99.136719 50.886719 C 99.226562 50.796875 99.355469 50.753906 99.523438 50.753906 L 99.605469 50.753906 L 99.605469 46.597656 L 99.523438 46.597656 C 99.355469 46.597656 99.222656 46.554688 99.132812 46.464844 C 99.042969 46.371094 98.996094 46.238281 98.996094 46.066406 C 98.996094 45.878906 99.042969 45.742188 99.136719 45.660156 C 99.230469 45.578125 99.386719 45.535156 99.605469 45.535156 L 100.503906 45.535156 C 100.613281 45.535156 100.6875 45.558594 100.730469 45.601562 C 100.769531 45.648438 100.792969 45.730469 100.792969 45.851562 Z M 100.792969 47.863281 "/>
<path style=" stroke:none;fill-rule:nonzero;fill:rgb(100%,100%,100%);fill-opacity:1;" d="M 108.117188 50.753906 L 109.148438 50.753906 C 109.367188 50.753906 109.523438 50.792969 109.617188 50.871094 C 109.707031 50.953125 109.753906 51.082031 109.753906 51.269531 C 109.753906 51.457031 109.707031 51.59375 109.609375 51.675781 C 109.519531 51.757812 109.363281 51.800781 109.148438 51.800781 L 105.910156 51.800781 C 105.695312 51.800781 105.539062 51.757812 105.441406 51.675781 C 105.351562 51.59375 105.304688 51.457031 105.304688 51.269531 C 105.304688 51.082031 105.347656 50.953125 105.4375 50.871094 C 105.53125 50.792969 105.6875 50.753906 105.910156 50.753906 L 106.941406 50.753906 L 106.941406 48.425781 L 106.398438 48.425781 C 106.1875 48.425781 106.03125 48.386719 105.941406 48.308594 C 105.847656 48.222656 105.800781 48.089844 105.800781 47.898438 C 105.800781 47.710938 105.847656 47.578125 105.9375 47.5 C 106.023438 47.417969 106.179688 47.378906 106.398438 47.378906 L 107.839844 47.378906 C 107.929688 47.378906 108 47.398438 108.046875 47.4375 C 108.09375 47.472656 108.117188 47.519531 108.117188 47.585938 Z M 107.429688 45.214844 C 107.660156 45.214844 107.816406 45.261719 107.894531 45.347656 C 107.96875 45.4375 108.007812 45.652344 108.007812 45.992188 C 108.007812 46.316406 107.972656 46.519531 107.902344 46.597656 C 107.835938 46.675781 107.675781 46.714844 107.417969 46.714844 C 107.171875 46.714844 107.007812 46.675781 106.9375 46.601562 C 106.867188 46.53125 106.832031 46.382812 106.832031 46.164062 C 106.832031 45.753906 106.867188 45.496094 106.941406 45.382812 C 107.015625 45.269531 107.175781 45.214844 107.429688 45.214844 Z M 107.429688 45.214844 "/>
<path style=" stroke:none;fill-rule:nonzero;fill:rgb(100%,100%,100%);fill-opacity:1;" d="M 113.003906 47.644531 L 114.464844 47.644531 C 114.683594 47.644531 114.839844 47.6875 114.933594 47.765625 C 115.023438 47.847656 115.070312 47.976562 115.070312 48.164062 C 115.070312 48.351562 115.023438 48.488281 114.925781 48.570312 C 114.835938 48.652344 114.679688 48.695312 114.464844 48.695312 L 113.003906 48.695312 L 113.003906 49.917969 C 113.003906 50.265625 113.054688 50.5 113.160156 50.628906 C 113.265625 50.753906 113.453125 50.820312 113.714844 50.820312 C 113.964844 50.820312 114.257812 50.746094 114.597656 50.605469 C 114.933594 50.460938 115.160156 50.386719 115.277344 50.386719 C 115.40625 50.386719 115.519531 50.441406 115.613281 50.546875 C 115.707031 50.648438 115.753906 50.773438 115.753906 50.917969 C 115.753906 51.164062 115.53125 51.390625 115.085938 51.59375 C 114.640625 51.796875 114.136719 51.894531 113.574219 51.894531 C 113.246094 51.894531 112.957031 51.851562 112.707031 51.761719 C 112.457031 51.671875 112.261719 51.542969 112.117188 51.378906 C 112.011719 51.25 111.9375 51.097656 111.894531 50.917969 C 111.847656 50.742188 111.828125 50.441406 111.828125 50.023438 L 111.828125 48.695312 L 111.375 48.695312 C 111.160156 48.695312 111.003906 48.652344 110.914062 48.570312 C 110.824219 48.488281 110.777344 48.351562 110.777344 48.164062 C 110.777344 47.976562 110.824219 47.84375 110.914062 47.765625 C 111 47.6875 111.15625 47.644531 111.375 47.644531 L 111.828125 47.644531 L 111.828125 46.527344 C 111.828125 46.304688 111.871094 46.152344 111.960938 46.0625 C 112.054688 45.972656 112.203125 45.929688 112.414062 45.929688 C 112.625 45.929688 112.777344 45.972656 112.863281 46.0625 C 112.957031 46.152344 113.003906 46.304688 113.003906 46.527344 Z M 113.003906 47.644531 "/>
<path style=" stroke:none;fill-rule:nonzero;fill:rgb(100%,100%,100%);fill-opacity:1;" d="M 117.917969 49.871094 C 118 50.226562 118.160156 50.492188 118.394531 50.664062 C 118.636719 50.839844 118.953125 50.929688 119.347656 50.929688 C 119.746094 50.929688 120.136719 50.832031 120.519531 50.640625 C 120.90625 50.449219 121.140625 50.351562 121.21875 50.351562 C 121.335938 50.351562 121.433594 50.394531 121.507812 50.484375 C 121.582031 50.570312 121.621094 50.683594 121.621094 50.820312 C 121.621094 51.117188 121.398438 51.378906 120.957031 51.59375 C 120.511719 51.8125 119.964844 51.917969 119.308594 51.917969 C 118.539062 51.917969 117.910156 51.703125 117.425781 51.269531 C 116.945312 50.835938 116.703125 50.277344 116.703125 49.59375 C 116.703125 48.914062 116.945312 48.359375 117.425781 47.925781 C 117.910156 47.488281 118.539062 47.273438 119.308594 47.273438 C 120 47.273438 120.570312 47.476562 121.023438 47.886719 C 121.476562 48.289062 121.703125 48.789062 121.703125 49.378906 C 121.703125 49.566406 121.65625 49.695312 121.5625 49.765625 C 121.476562 49.835938 121.289062 49.871094 121.003906 49.871094 Z M 120.496094 49.125 C 120.441406 48.828125 120.300781 48.597656 120.074219 48.4375 C 119.851562 48.273438 119.5625 48.191406 119.199219 48.191406 C 118.851562 48.191406 118.570312 48.269531 118.359375 48.425781 C 118.148438 48.578125 118 48.8125 117.917969 49.125 Z M 120.496094 49.125 "/>
<path style=" stroke:none;fill-rule:nonzero;fill:rgb(100%,100%,100%);fill-opacity:1;" d="M 126.527344 47.636719 C 126.566406 47.511719 126.625 47.421875 126.703125 47.359375 C 126.785156 47.296875 126.890625 47.261719 127.019531 47.261719 C 127.191406 47.261719 127.3125 47.316406 127.386719 47.421875 C 127.460938 47.523438 127.496094 47.703125 127.496094 47.957031 L 127.496094 48.742188 C 127.496094 48.9375 127.457031 49.082031 127.378906 49.171875 C 127.296875 49.265625 127.175781 49.3125 127.011719 49.3125 C 126.890625 49.3125 126.792969 49.285156 126.714844 49.230469 C 126.632812 49.175781 126.546875 49.074219 126.460938 48.917969 C 126.332031 48.703125 126.164062 48.542969 125.957031 48.441406 C 125.75 48.335938 125.496094 48.28125 125.195312 48.28125 C 124.824219 48.28125 124.515625 48.40625 124.277344 48.652344 C 124.042969 48.894531 123.921875 49.203125 123.921875 49.585938 C 123.921875 49.984375 124.046875 50.304688 124.292969 50.546875 C 124.539062 50.789062 124.867188 50.910156 125.28125 50.910156 C 125.660156 50.910156 126.03125 50.804688 126.402344 50.597656 C 126.773438 50.386719 127.003906 50.28125 127.085938 50.28125 C 127.203125 50.28125 127.300781 50.328125 127.378906 50.421875 C 127.457031 50.511719 127.496094 50.625 127.496094 50.761719 C 127.496094 51.0625 127.269531 51.328125 126.8125 51.566406 C 126.359375 51.800781 125.820312 51.917969 125.195312 51.917969 C 124.425781 51.917969 123.796875 51.703125 123.3125 51.269531 C 122.828125 50.835938 122.589844 50.277344 122.589844 49.59375 C 122.589844 48.925781 122.828125 48.371094 123.304688 47.929688 C 123.785156 47.484375 124.386719 47.261719 125.113281 47.261719 C 125.359375 47.261719 125.601562 47.292969 125.832031 47.355469 C 126.066406 47.414062 126.296875 47.507812 126.527344 47.636719 Z M 126.527344 47.636719 "/>
<path style=" stroke:none;fill-rule:nonzero;fill:rgb(100%,100%,100%);fill-opacity:1;" d="M 130.660156 47.644531 L 132.121094 47.644531 C 132.339844 47.644531 132.496094 47.6875 132.589844 47.765625 C 132.683594 47.847656 132.726562 47.976562 132.726562 48.164062 C 132.726562 48.351562 132.679688 48.488281 132.585938 48.570312 C 132.492188 48.652344 132.335938 48.695312 132.121094 48.695312 L 130.660156 48.695312 L 130.660156 49.917969 C 130.660156 50.265625 130.714844 50.5 130.820312 50.628906 C 130.925781 50.753906 131.109375 50.820312 131.375 50.820312 C 131.621094 50.820312 131.917969 50.746094 132.253906 50.605469 C 132.59375 50.460938 132.820312 50.386719 132.933594 50.386719 C 133.066406 50.386719 133.175781 50.441406 133.269531 50.546875 C 133.363281 50.648438 133.414062 50.773438 133.414062 50.917969 C 133.414062 51.164062 133.1875 51.390625 132.742188 51.59375 C 132.300781 51.796875 131.796875 51.894531 131.230469 51.894531 C 130.902344 51.894531 130.613281 51.851562 130.363281 51.761719 C 130.117188 51.671875 129.917969 51.542969 129.777344 51.378906 C 129.671875 51.25 129.59375 51.097656 129.550781 50.917969 C 129.507812 50.742188 129.484375 50.441406 129.484375 50.023438 L 129.484375 48.695312 L 129.035156 48.695312 C 128.816406 48.695312 128.664062 48.652344 128.570312 48.570312 C 128.480469 48.488281 128.4375 48.351562 128.4375 48.164062 C 128.4375 47.976562 128.480469 47.84375 128.570312 47.765625 C 128.660156 47.6875 128.8125 47.644531 129.035156 47.644531 L 129.484375 47.644531 L 129.484375 46.527344 C 129.484375 46.304688 129.527344 46.152344 129.617188 46.0625 C 129.710938 45.972656 129.863281 45.929688 130.070312 45.929688 C 130.28125 45.929688 130.433594 45.972656 130.523438 46.0625 C 130.613281 46.152344 130.660156 46.304688 130.660156 46.527344 Z M 130.660156 47.644531 "/>
<path style=" stroke:none;fill-rule:nonzero;fill:rgb(100%,100%,100%);fill-opacity:1;" d="M 137.632812 48.425781 L 137.554688 48.425781 C 137.382812 48.425781 137.253906 48.382812 137.164062 48.292969 C 137.078125 48.203125 137.035156 48.074219 137.035156 47.898438 C 137.035156 47.710938 137.078125 47.578125 137.167969 47.5 C 137.257812 47.417969 137.414062 47.378906 137.632812 47.378906 L 138.539062 47.378906 C 138.625 47.378906 138.691406 47.398438 138.738281 47.4375 C 138.785156 47.472656 138.808594 47.519531 138.808594 47.585938 L 138.808594 50.753906 L 138.886719 50.753906 C 139.058594 50.753906 139.191406 50.796875 139.277344 50.886719 C 139.371094 50.976562 139.417969 51.101562 139.417969 51.269531 C 139.417969 51.460938 139.371094 51.597656 139.277344 51.679688 C 139.1875 51.761719 139.03125 51.800781 138.808594 51.800781 L 138.007812 51.800781 C 137.917969 51.800781 137.847656 51.78125 137.796875 51.742188 C 137.746094 51.703125 137.722656 51.652344 137.722656 51.585938 L 137.722656 51.222656 C 137.570312 51.449219 137.382812 51.621094 137.160156 51.738281 C 136.9375 51.851562 136.679688 51.910156 136.378906 51.910156 C 135.867188 51.910156 135.484375 51.753906 135.234375 51.445312 C 134.988281 51.136719 134.863281 50.664062 134.863281 50.023438 L 134.863281 48.425781 L 134.78125 48.425781 C 134.609375 48.425781 134.476562 48.382812 134.386719 48.292969 C 134.300781 48.203125 134.253906 48.074219 134.253906 47.898438 C 134.253906 47.710938 134.300781 47.578125 134.386719 47.5 C 134.480469 47.417969 134.640625 47.378906 134.863281 47.378906 L 135.761719 47.378906 C 135.847656 47.378906 135.914062 47.398438 135.957031 47.4375 C 136.003906 47.472656 136.023438 47.519531 136.023438 47.585938 L 136.023438 49.808594 C 136.023438 50.203125 136.078125 50.476562 136.1875 50.636719 C 136.296875 50.796875 136.476562 50.875 136.722656 50.875 C 136.988281 50.875 137.207031 50.777344 137.375 50.585938 C 137.546875 50.386719 137.632812 50.128906 137.632812 49.808594 Z M 137.632812 48.425781 "/>
<path style=" stroke:none;fill-rule:nonzero;fill:rgb(100%,100%,100%);fill-opacity:1;" d="M 142.546875 49.203125 L 142.546875 50.753906 L 143.675781 50.753906 C 143.894531 50.753906 144.046875 50.792969 144.136719 50.871094 C 144.226562 50.953125 144.273438 51.082031 144.273438 51.269531 C 144.273438 51.457031 144.226562 51.59375 144.136719 51.675781 C 144.046875 51.757812 143.894531 51.800781 143.675781 51.800781 L 141 51.800781 C 140.78125 51.800781 140.625 51.757812 140.53125 51.675781 C 140.441406 51.59375 140.394531 51.457031 140.394531 51.269531 C 140.394531 51.082031 140.4375 50.953125 140.527344 50.871094 C 140.621094 50.792969 140.777344 50.753906 141 50.753906 L 141.363281 50.753906 L 141.363281 48.425781 L 141.160156 48.425781 C 140.941406 48.425781 140.789062 48.386719 140.695312 48.308594 C 140.605469 48.222656 140.5625 48.089844 140.5625 47.898438 C 140.5625 47.710938 140.605469 47.578125 140.691406 47.5 C 140.78125 47.417969 140.9375 47.378906 141.160156 47.378906 L 142.179688 47.378906 C 142.265625 47.378906 142.332031 47.398438 142.378906 47.4375 C 142.425781 47.472656 142.453125 47.519531 142.453125 47.585938 L 142.453125 48.292969 C 142.800781 47.917969 143.121094 47.652344 143.421875 47.492188 C 143.726562 47.332031 144.050781 47.253906 144.398438 47.253906 C 144.714844 47.253906 144.964844 47.324219 145.148438 47.46875 C 145.335938 47.609375 145.429688 47.800781 145.429688 48.039062 C 145.429688 48.222656 145.363281 48.378906 145.238281 48.5 C 145.109375 48.617188 144.945312 48.675781 144.742188 48.675781 C 144.601562 48.675781 144.429688 48.621094 144.230469 48.515625 C 144.035156 48.414062 143.902344 48.359375 143.824219 48.359375 C 143.671875 48.359375 143.492188 48.429688 143.285156 48.566406 C 143.078125 48.703125 142.832031 48.914062 142.546875 49.203125 Z M 142.546875 49.203125 "/>
<path style=" stroke:none;fill-rule:nonzero;fill:rgb(100%,100%,100%);fill-opacity:1;" d="M 147.347656 49.871094 C 147.429688 50.226562 147.589844 50.492188 147.824219 50.664062 C 148.0625 50.839844 148.382812 50.929688 148.777344 50.929688 C 149.171875 50.929688 149.5625 50.832031 149.949219 50.640625 C 150.335938 50.449219 150.570312 50.351562 150.648438 50.351562 C 150.765625 50.351562 150.863281 50.394531 150.9375 50.484375 C 151.011719 50.570312 151.050781 50.683594 151.050781 50.820312 C 151.050781 51.117188 150.828125 51.378906 150.386719 51.59375 C 149.941406 51.8125 149.394531 51.917969 148.738281 51.917969 C 147.96875 51.917969 147.339844 51.703125 146.855469 51.269531 C 146.371094 50.835938 146.132812 50.277344 146.132812 49.59375 C 146.132812 48.914062 146.371094 48.359375 146.855469 47.925781 C 147.339844 47.488281 147.96875 47.273438 148.738281 47.273438 C 149.429688 47.273438 150 47.476562 150.453125 47.886719 C 150.90625 48.289062 151.132812 48.789062 151.132812 49.378906 C 151.132812 49.566406 151.085938 49.695312 150.992188 49.765625 C 150.902344 49.835938 150.71875 49.871094 150.433594 49.871094 Z M 149.925781 49.125 C 149.871094 48.828125 149.730469 48.597656 149.503906 48.4375 C 149.28125 48.273438 148.988281 48.191406 148.628906 48.191406 C 148.28125 48.191406 148 48.269531 147.785156 48.425781 C 147.578125 48.578125 147.429688 48.8125 147.347656 49.125 Z M 149.925781 49.125 "/>
<path style=" stroke:none;fill-rule:nonzero;fill:rgb(100%,100%,100%);fill-opacity:1;" d="M 159.679688 49.488281 C 159.519531 49.585938 159.398438 49.699219 159.320312 49.820312 C 159.242188 49.9375 159.203125 50.070312 159.203125 50.222656 C 159.203125 50.425781 159.273438 50.597656 159.410156 50.734375 C 159.550781 50.871094 159.722656 50.9375 159.929688 50.9375 C 160.035156 50.9375 160.136719 50.917969 160.242188 50.875 C 160.347656 50.835938 160.460938 50.769531 160.578125 50.683594 Z M 161.070312 46.597656 C 161.117188 46.585938 161.15625 46.578125 161.183594 46.574219 C 161.214844 46.566406 161.242188 46.566406 161.265625 46.566406 C 161.367188 46.566406 161.453125 46.605469 161.519531 46.6875 C 161.589844 46.769531 161.625 46.871094 161.625 46.996094 C 161.625 47.160156 161.570312 47.304688 161.460938 47.429688 C 161.359375 47.554688 161.238281 47.617188 161.109375 47.617188 C 161.019531 47.617188 160.875 47.558594 160.671875 47.441406 C 160.476562 47.324219 160.316406 47.261719 160.195312 47.261719 C 160.078125 47.261719 159.988281 47.296875 159.917969 47.359375 C 159.847656 47.421875 159.8125 47.507812 159.8125 47.617188 C 159.8125 47.75 159.878906 47.914062 160.019531 48.105469 C 160.046875 48.136719 160.066406 48.164062 160.078125 48.183594 L 161.222656 49.789062 C 161.261719 49.679688 161.304688 49.53125 161.351562 49.351562 C 161.453125 48.953125 161.632812 48.75 161.882812 48.75 L 162.253906 48.75 C 162.351562 48.75 162.433594 48.796875 162.5 48.886719 C 162.570312 48.976562 162.605469 49.085938 162.605469 49.222656 C 162.605469 49.367188 162.570312 49.480469 162.5 49.5625 C 162.429688 49.636719 162.320312 49.6875 162.167969 49.714844 C 162.132812 49.890625 162.089844 50.054688 162.03125 50.207031 C 161.976562 50.355469 161.902344 50.5 161.8125 50.632812 L 162.054688 50.929688 L 162.136719 50.929688 C 162.273438 50.929688 162.375 50.964844 162.445312 51.039062 C 162.515625 51.109375 162.550781 51.214844 162.550781 51.351562 C 162.550781 51.492188 162.507812 51.605469 162.421875 51.683594 C 162.335938 51.761719 162.214844 51.800781 162.054688 51.800781 L 161.679688 51.800781 C 161.574219 51.800781 161.492188 51.789062 161.4375 51.769531 C 161.386719 51.75 161.34375 51.710938 161.304688 51.660156 L 161.15625 51.464844 C 160.953125 51.617188 160.71875 51.738281 160.453125 51.824219 C 160.1875 51.914062 159.921875 51.957031 159.660156 51.957031 C 159.179688 51.957031 158.789062 51.820312 158.488281 51.542969 C 158.183594 51.261719 158.03125 50.902344 158.03125 50.464844 C 158.03125 50.109375 158.113281 49.796875 158.28125 49.527344 C 158.445312 49.253906 158.71875 48.992188 159.097656 48.734375 L 158.835938 48.3125 C 158.765625 48.203125 158.710938 48.078125 158.667969 47.9375 C 158.628906 47.792969 158.609375 47.65625 158.609375 47.527344 C 158.609375 47.144531 158.738281 46.84375 159 46.628906 C 159.261719 46.410156 159.625 46.300781 160.089844 46.300781 C 160.277344 46.300781 160.449219 46.324219 160.601562 46.375 C 160.757812 46.417969 160.914062 46.492188 161.070312 46.597656 Z M 161.070312 46.597656 "/>
<path style=" stroke:none;fill-rule:nonzero;fill:rgb(100%,100%,100%);fill-opacity:1;" d="M 173.695312 46.28125 C 173.757812 46.167969 173.824219 46.085938 173.890625 46.039062 C 173.957031 45.992188 174.042969 45.96875 174.144531 45.96875 C 174.300781 45.96875 174.410156 46.007812 174.472656 46.089844 C 174.539062 46.175781 174.574219 46.316406 174.574219 46.515625 L 174.582031 47.761719 C 174.582031 47.980469 174.546875 48.128906 174.472656 48.207031 C 174.402344 48.28125 174.273438 48.320312 174.085938 48.320312 C 173.953125 48.320312 173.847656 48.289062 173.773438 48.226562 C 173.703125 48.160156 173.644531 48.042969 173.59375 47.871094 C 173.511719 47.570312 173.378906 47.351562 173.195312 47.21875 C 173.015625 47.085938 172.761719 47.019531 172.441406 47.019531 C 171.949219 47.019531 171.574219 47.1875 171.3125 47.515625 C 171.050781 47.847656 170.917969 48.328125 170.917969 48.957031 C 170.917969 49.582031 171.050781 50.0625 171.316406 50.398438 C 171.582031 50.734375 171.957031 50.902344 172.449219 50.902344 C 172.785156 50.902344 173.152344 50.789062 173.554688 50.566406 C 173.960938 50.34375 174.214844 50.230469 174.320312 50.230469 C 174.445312 50.230469 174.546875 50.28125 174.632812 50.386719 C 174.71875 50.492188 174.761719 50.625 174.761719 50.78125 C 174.761719 51.0625 174.511719 51.328125 174.019531 51.574219 C 173.523438 51.824219 172.96875 51.949219 172.347656 51.949219 C 171.511719 51.949219 170.835938 51.671875 170.320312 51.121094 C 169.804688 50.570312 169.546875 49.847656 169.546875 48.957031 C 169.546875 48.097656 169.804688 47.386719 170.328125 46.820312 C 170.851562 46.25 171.515625 45.96875 172.320312 45.96875 C 172.546875 45.96875 172.769531 45.992188 172.992188 46.042969 C 173.210938 46.09375 173.445312 46.175781 173.695312 46.28125 Z M 173.695312 46.28125 "/>
<path style=" stroke:none;fill-rule:nonzero;fill:rgb(100%,100%,100%);fill-opacity:1;" d="M 178.078125 48.28125 C 177.703125 48.28125 177.394531 48.40625 177.152344 48.652344 C 176.914062 48.894531 176.792969 49.203125 176.792969 49.585938 C 176.792969 49.96875 176.914062 50.285156 177.152344 50.535156 C 177.394531 50.785156 177.703125 50.910156 178.078125 50.910156 C 178.449219 50.910156 178.757812 50.785156 179 50.535156 C 179.242188 50.285156 179.363281 49.96875 179.363281 49.585938 C 179.363281 49.203125 179.242188 48.894531 179 48.652344 C 178.761719 48.40625 178.453125 48.28125 178.078125 48.28125 Z M 178.078125 47.273438 C 178.851562 47.273438 179.480469 47.488281 179.960938 47.925781 C 180.445312 48.359375 180.683594 48.914062 180.683594 49.59375 C 180.683594 50.277344 180.445312 50.835938 179.960938 51.269531 C 179.480469 51.703125 178.851562 51.917969 178.078125 51.917969 C 177.304688 51.917969 176.679688 51.703125 176.195312 51.269531 C 175.714844 50.835938 175.472656 50.277344 175.472656 49.59375 C 175.472656 48.914062 175.714844 48.359375 176.195312 47.925781 C 176.679688 47.488281 177.308594 47.273438 178.078125 47.273438 Z M 178.078125 47.273438 "/>
<path style=" stroke:none;fill-rule:nonzero;fill:rgb(100%,100%,100%);fill-opacity:1;" d="M 185.972656 50.742188 L 186.035156 50.742188 C 186.214844 50.742188 186.347656 50.789062 186.4375 50.875 C 186.527344 50.960938 186.570312 51.09375 186.570312 51.269531 C 186.570312 51.457031 186.523438 51.59375 186.433594 51.675781 C 186.34375 51.757812 186.1875 51.800781 185.972656 51.800781 L 184.796875 51.800781 C 184.582031 51.800781 184.425781 51.757812 184.332031 51.675781 C 184.238281 51.59375 184.191406 51.457031 184.191406 51.269531 C 184.191406 51.09375 184.238281 50.960938 184.328125 50.875 C 184.417969 50.789062 184.554688 50.742188 184.738281 50.742188 L 184.796875 50.742188 L 184.796875 49.359375 C 184.796875 48.976562 184.742188 48.707031 184.632812 48.546875 C 184.527344 48.382812 184.351562 48.300781 184.101562 48.300781 C 183.835938 48.300781 183.621094 48.398438 183.449219 48.59375 C 183.285156 48.785156 183.203125 49.039062 183.203125 49.359375 L 183.203125 50.742188 L 183.257812 50.742188 C 183.441406 50.742188 183.578125 50.789062 183.664062 50.875 C 183.753906 50.960938 183.800781 51.09375 183.800781 51.269531 C 183.800781 51.457031 183.753906 51.59375 183.660156 51.675781 C 183.570312 51.757812 183.414062 51.800781 183.203125 51.800781 L 182.015625 51.800781 C 181.800781 51.800781 181.648438 51.757812 181.554688 51.675781 C 181.464844 51.59375 181.417969 51.457031 181.417969 51.269531 C 181.417969 51.09375 181.460938 50.960938 181.550781 50.875 C 181.640625 50.789062 181.777344 50.742188 181.957031 50.742188 L 182.015625 50.742188 L 182.015625 48.425781 L 181.933594 48.425781 C 181.761719 48.425781 181.628906 48.382812 181.542969 48.296875 C 181.453125 48.207031 181.40625 48.078125 181.40625 47.910156 C 181.40625 47.722656 181.453125 47.585938 181.546875 47.503906 C 181.640625 47.421875 181.796875 47.378906 182.015625 47.378906 L 182.828125 47.378906 C 182.917969 47.378906 182.984375 47.394531 183.03125 47.429688 C 183.078125 47.464844 183.101562 47.515625 183.101562 47.585938 L 183.101562 47.957031 C 183.25 47.726562 183.433594 47.554688 183.660156 47.441406 C 183.890625 47.324219 184.15625 47.261719 184.457031 47.261719 C 184.964844 47.261719 185.34375 47.417969 185.59375 47.726562 C 185.847656 48.039062 185.972656 48.507812 185.972656 49.144531 Z M 185.972656 50.742188 "/>
<path style=" stroke:none;fill-rule:nonzero;fill:rgb(100%,100%,100%);fill-opacity:1;" d="M 188.585938 51.734375 C 188.503906 51.796875 188.414062 51.84375 188.328125 51.875 C 188.242188 51.910156 188.152344 51.929688 188.058594 51.929688 C 187.921875 51.929688 187.824219 51.894531 187.765625 51.820312 C 187.710938 51.746094 187.6875 51.609375 187.6875 51.40625 L 187.6875 50.769531 C 187.6875 50.5625 187.71875 50.414062 187.789062 50.328125 C 187.859375 50.238281 187.980469 50.191406 188.15625 50.191406 C 188.34375 50.191406 188.496094 50.28125 188.613281 50.464844 C 188.683594 50.5625 188.742188 50.636719 188.789062 50.683594 C 188.945312 50.824219 189.128906 50.929688 189.335938 51 C 189.542969 51.070312 189.78125 51.105469 190.042969 51.105469 C 190.273438 51.105469 190.457031 51.0625 190.59375 50.972656 C 190.730469 50.882812 190.800781 50.765625 190.800781 50.621094 C 190.800781 50.363281 190.433594 50.1875 189.695312 50.085938 C 189.53125 50.066406 189.40625 50.050781 189.3125 50.035156 C 188.757812 49.957031 188.34375 49.808594 188.074219 49.585938 C 187.800781 49.359375 187.667969 49.054688 187.667969 48.675781 C 187.667969 48.226562 187.828125 47.878906 188.15625 47.632812 C 188.480469 47.386719 188.945312 47.261719 189.546875 47.261719 C 189.753906 47.261719 189.964844 47.28125 190.183594 47.316406 C 190.402344 47.347656 190.628906 47.398438 190.859375 47.46875 C 190.925781 47.390625 190.996094 47.332031 191.070312 47.292969 C 191.144531 47.253906 191.230469 47.234375 191.320312 47.234375 C 191.453125 47.234375 191.550781 47.277344 191.617188 47.359375 C 191.6875 47.4375 191.722656 47.558594 191.722656 47.722656 L 191.722656 48.3125 C 191.722656 48.449219 191.6875 48.554688 191.617188 48.632812 C 191.546875 48.707031 191.449219 48.742188 191.320312 48.742188 C 191.191406 48.742188 190.964844 48.628906 190.648438 48.402344 C 190.332031 48.171875 190.015625 48.058594 189.695312 48.058594 C 189.445312 48.058594 189.253906 48.097656 189.117188 48.183594 C 188.980469 48.261719 188.910156 48.375 188.910156 48.515625 C 188.910156 48.742188 189.199219 48.890625 189.773438 48.96875 C 189.9375 48.988281 190.070312 49.003906 190.164062 49.015625 C 190.886719 49.121094 191.378906 49.277344 191.648438 49.488281 C 191.917969 49.695312 192.054688 50.003906 192.054688 50.417969 C 192.054688 50.898438 191.875 51.273438 191.519531 51.535156 C 191.164062 51.796875 190.660156 51.929688 190.007812 51.929688 C 189.75 51.929688 189.503906 51.910156 189.269531 51.875 C 189.035156 51.84375 188.804688 51.796875 188.585938 51.734375 Z M 188.585938 51.734375 "/>
<path style=" stroke:none;fill-rule:nonzero;fill:rgb(100%,100%,100%);fill-opacity:1;" d="M 195.402344 47.644531 L 196.863281 47.644531 C 197.082031 47.644531 197.238281 47.6875 197.332031 47.765625 C 197.425781 47.847656 197.472656 47.976562 197.472656 48.164062 C 197.472656 48.351562 197.421875 48.488281 197.328125 48.570312 C 197.234375 48.652344 197.082031 48.695312 196.863281 48.695312 L 195.402344 48.695312 L 195.402344 49.917969 C 195.402344 50.265625 195.457031 50.5 195.5625 50.628906 C 195.667969 50.753906 195.851562 50.820312 196.117188 50.820312 C 196.367188 50.820312 196.660156 50.746094 196.996094 50.605469 C 197.335938 50.460938 197.5625 50.386719 197.675781 50.386719 C 197.808594 50.386719 197.917969 50.441406 198.011719 50.546875 C 198.109375 50.648438 198.15625 50.773438 198.15625 50.917969 C 198.15625 51.164062 197.933594 51.390625 197.484375 51.59375 C 197.042969 51.796875 196.539062 51.894531 195.972656 51.894531 C 195.644531 51.894531 195.355469 51.851562 195.105469 51.761719 C 194.859375 51.671875 194.664062 51.542969 194.519531 51.378906 C 194.414062 51.25 194.339844 51.097656 194.292969 50.917969 C 194.25 50.742188 194.226562 50.441406 194.226562 50.023438 L 194.226562 48.695312 L 193.777344 48.695312 C 193.558594 48.695312 193.40625 48.652344 193.3125 48.570312 C 193.222656 48.488281 193.179688 48.351562 193.179688 48.164062 C 193.179688 47.976562 193.222656 47.84375 193.3125 47.765625 C 193.402344 47.6875 193.558594 47.644531 193.777344 47.644531 L 194.226562 47.644531 L 194.226562 46.527344 C 194.226562 46.304688 194.273438 46.152344 194.359375 46.0625 C 194.453125 45.972656 194.605469 45.929688 194.816406 45.929688 C 195.027344 45.929688 195.175781 45.972656 195.265625 46.0625 C 195.359375 46.152344 195.402344 46.304688 195.402344 46.527344 Z M 195.402344 47.644531 "/>
<path style=" stroke:none;fill-rule:nonzero;fill:rgb(100%,100%,100%);fill-opacity:1;" d="M 201.40625 49.203125 L 201.40625 50.753906 L 202.535156 50.753906 C 202.75 50.753906 202.902344 50.792969 202.992188 50.871094 C 203.085938 50.953125 203.132812 51.082031 203.132812 51.269531 C 203.132812 51.457031 203.085938 51.59375 202.992188 51.675781 C 202.902344 51.757812 202.75 51.800781 202.535156 51.800781 L 199.859375 51.800781 C 199.640625 51.800781 199.484375 51.757812 199.390625 51.675781 C 199.296875 51.59375 199.25 51.457031 199.25 51.269531 C 199.25 51.082031 199.296875 50.953125 199.386719 50.871094 C 199.476562 50.792969 199.636719 50.753906 199.859375 50.753906 L 200.222656 50.753906 L 200.222656 48.425781 L 200.015625 48.425781 C 199.800781 48.425781 199.644531 48.386719 199.554688 48.308594 C 199.464844 48.222656 199.417969 48.089844 199.417969 47.898438 C 199.417969 47.710938 199.460938 47.578125 199.546875 47.5 C 199.636719 47.417969 199.792969 47.378906 200.015625 47.378906 L 201.035156 47.378906 C 201.121094 47.378906 201.1875 47.398438 201.238281 47.4375 C 201.285156 47.472656 201.308594 47.519531 201.308594 47.585938 L 201.308594 48.292969 C 201.65625 47.917969 201.980469 47.652344 202.28125 47.492188 C 202.582031 47.332031 202.910156 47.253906 203.257812 47.253906 C 203.570312 47.253906 203.824219 47.324219 204.007812 47.46875 C 204.191406 47.609375 204.285156 47.800781 204.285156 48.039062 C 204.285156 48.222656 204.222656 48.378906 204.09375 48.5 C 203.964844 48.617188 203.800781 48.675781 203.601562 48.675781 C 203.457031 48.675781 203.285156 48.621094 203.089844 48.515625 C 202.894531 48.414062 202.757812 48.359375 202.683594 48.359375 C 202.527344 48.359375 202.347656 48.429688 202.140625 48.566406 C 201.933594 48.703125 201.6875 48.914062 201.40625 49.203125 Z M 201.40625 49.203125 "/>
<path style=" stroke:none;fill-rule:nonzero;fill:rgb(100%,100%,100%);fill-opacity:1;" d="M 208.261719 48.425781 L 208.1875 48.425781 C 208.011719 48.425781 207.882812 48.382812 207.792969 48.292969 C 207.707031 48.203125 207.664062 48.074219 207.664062 47.898438 C 207.664062 47.710938 207.707031 47.578125 207.796875 47.5 C 207.886719 47.417969 208.042969 47.378906 208.261719 47.378906 L 209.164062 47.378906 C 209.253906 47.378906 209.320312 47.398438 209.367188 47.4375 C 209.414062 47.472656 209.4375 47.519531 209.4375 47.585938 L 209.4375 50.753906 L 209.515625 50.753906 C 209.6875 50.753906 209.816406 50.796875 209.90625 50.886719 C 210 50.976562 210.046875 51.101562 210.046875 51.269531 C 210.046875 51.460938 210 51.597656 209.90625 51.679688 C 209.816406 51.761719 209.65625 51.800781 209.4375 51.800781 L 208.632812 51.800781 C 208.546875 51.800781 208.476562 51.78125 208.425781 51.742188 C 208.375 51.703125 208.351562 51.652344 208.351562 51.585938 L 208.351562 51.222656 C 208.199219 51.449219 208.011719 51.621094 207.789062 51.738281 C 207.566406 51.851562 207.308594 51.910156 207.007812 51.910156 C 206.492188 51.910156 206.113281 51.753906 205.863281 51.445312 C 205.617188 51.136719 205.492188 50.664062 205.492188 50.023438 L 205.492188 48.425781 L 205.410156 48.425781 C 205.238281 48.425781 205.105469 48.382812 205.015625 48.292969 C 204.929688 48.203125 204.882812 48.074219 204.882812 47.898438 C 204.882812 47.710938 204.929688 47.578125 205.015625 47.5 C 205.109375 47.417969 205.269531 47.378906 205.492188 47.378906 L 206.390625 47.378906 C 206.476562 47.378906 206.542969 47.398438 206.585938 47.4375 C 206.632812 47.472656 206.652344 47.519531 206.652344 47.585938 L 206.652344 49.808594 C 206.652344 50.203125 206.707031 50.476562 206.816406 50.636719 C 206.925781 50.796875 207.105469 50.875 207.351562 50.875 C 207.617188 50.875 207.835938 50.777344 208.003906 50.585938 C 208.175781 50.386719 208.261719 50.128906 208.261719 49.808594 Z M 208.261719 48.425781 "/>
<path style=" stroke:none;fill-rule:nonzero;fill:rgb(100%,100%,100%);fill-opacity:1;" d="M 214.8125 47.636719 C 214.851562 47.511719 214.910156 47.421875 214.988281 47.359375 C 215.070312 47.296875 215.179688 47.261719 215.304688 47.261719 C 215.476562 47.261719 215.601562 47.316406 215.675781 47.421875 C 215.746094 47.523438 215.785156 47.703125 215.785156 47.957031 L 215.785156 48.742188 C 215.785156 48.9375 215.742188 49.082031 215.664062 49.171875 C 215.585938 49.265625 215.460938 49.3125 215.296875 49.3125 C 215.179688 49.3125 215.078125 49.285156 215 49.230469 C 214.921875 49.175781 214.835938 49.074219 214.746094 48.917969 C 214.617188 48.703125 214.449219 48.542969 214.242188 48.441406 C 214.035156 48.335938 213.78125 48.28125 213.480469 48.28125 C 213.109375 48.28125 212.800781 48.40625 212.5625 48.652344 C 212.328125 48.894531 212.210938 49.203125 212.210938 49.585938 C 212.210938 49.984375 212.332031 50.304688 212.578125 50.546875 C 212.824219 50.789062 213.152344 50.910156 213.566406 50.910156 C 213.945312 50.910156 214.316406 50.804688 214.6875 50.597656 C 215.0625 50.386719 215.289062 50.28125 215.371094 50.28125 C 215.488281 50.28125 215.589844 50.328125 215.664062 50.421875 C 215.742188 50.511719 215.785156 50.625 215.785156 50.761719 C 215.785156 51.0625 215.554688 51.328125 215.101562 51.566406 C 214.644531 51.800781 214.109375 51.917969 213.480469 51.917969 C 212.710938 51.917969 212.082031 51.703125 211.597656 51.269531 C 211.117188 50.835938 210.875 50.277344 210.875 49.59375 C 210.875 48.925781 211.113281 48.371094 211.59375 47.929688 C 212.070312 47.484375 212.675781 47.261719 213.398438 47.261719 C 213.644531 47.261719 213.886719 47.292969 214.117188 47.355469 C 214.351562 47.414062 214.582031 47.507812 214.8125 47.636719 Z M 214.8125 47.636719 "/>
<path style=" stroke:none;fill-rule:nonzero;fill:rgb(100%,100%,100%);fill-opacity:1;" d="M 218.945312 47.644531 L 220.40625 47.644531 C 220.625 47.644531 220.78125 47.6875 220.875 47.765625 C 220.96875 47.847656 221.015625 47.976562 221.015625 48.164062 C 221.015625 48.351562 220.964844 48.488281 220.871094 48.570312 C 220.777344 48.652344 220.625 48.695312 220.40625 48.695312 L 218.945312 48.695312 L 218.945312 49.917969 C 218.945312 50.265625 219 50.5 219.105469 50.628906 C 219.210938 50.753906 219.394531 50.820312 219.660156 50.820312 C 219.90625 50.820312 220.203125 50.746094 220.539062 50.605469 C 220.878906 50.460938 221.105469 50.386719 221.21875 50.386719 C 221.351562 50.386719 221.460938 50.441406 221.554688 50.546875 C 221.648438 50.648438 221.699219 50.773438 221.699219 50.917969 C 221.699219 51.164062 221.476562 51.390625 221.027344 51.59375 C 220.585938 51.796875 220.082031 51.894531 219.515625 51.894531 C 219.1875 51.894531 218.898438 51.851562 218.648438 51.761719 C 218.402344 51.671875 218.207031 51.542969 218.0625 51.378906 C 217.957031 51.25 217.882812 51.097656 217.835938 50.917969 C 217.792969 50.742188 217.769531 50.441406 217.769531 50.023438 L 217.769531 48.695312 L 217.320312 48.695312 C 217.105469 48.695312 216.949219 48.652344 216.855469 48.570312 C 216.765625 48.488281 216.722656 48.351562 216.722656 48.164062 C 216.722656 47.976562 216.765625 47.84375 216.855469 47.765625 C 216.945312 47.6875 217.101562 47.644531 217.320312 47.644531 L 217.769531 47.644531 L 217.769531 46.527344 C 217.769531 46.304688 217.8125 46.152344 217.902344 46.0625 C 217.996094 45.972656 218.148438 45.929688 218.359375 45.929688 C 218.566406 45.929688 218.71875 45.972656 218.808594 46.0625 C 218.898438 46.152344 218.945312 46.304688 218.945312 46.527344 Z M 218.945312 47.644531 "/>
<path style=" stroke:none;fill-rule:nonzero;fill:rgb(100%,100%,100%);fill-opacity:1;" d="M 225.832031 50.753906 L 226.863281 50.753906 C 227.082031 50.753906 227.238281 50.792969 227.328125 50.871094 C 227.425781 50.953125 227.46875 51.082031 227.46875 51.269531 C 227.46875 51.457031 227.421875 51.59375 227.324219 51.675781 C 227.234375 51.757812 227.078125 51.800781 226.863281 51.800781 L 223.625 51.800781 C 223.410156 51.800781 223.253906 51.757812 223.15625 51.675781 C 223.066406 51.59375 223.019531 51.457031 223.019531 51.269531 C 223.019531 51.082031 223.0625 50.953125 223.152344 50.871094 C 223.246094 50.792969 223.402344 50.753906 223.625 50.753906 L 224.65625 50.753906 L 224.65625 48.425781 L 224.113281 48.425781 C 223.902344 48.425781 223.746094 48.386719 223.65625 48.308594 C 223.5625 48.222656 223.515625 48.089844 223.515625 47.898438 C 223.515625 47.710938 223.5625 47.578125 223.648438 47.5 C 223.738281 47.417969 223.894531 47.378906 224.113281 47.378906 L 225.554688 47.378906 C 225.644531 47.378906 225.714844 47.398438 225.761719 47.4375 C 225.808594 47.472656 225.832031 47.519531 225.832031 47.585938 Z M 225.144531 45.214844 C 225.375 45.214844 225.53125 45.261719 225.609375 45.347656 C 225.683594 45.4375 225.722656 45.652344 225.722656 45.992188 C 225.722656 46.316406 225.6875 46.519531 225.617188 46.597656 C 225.550781 46.675781 225.390625 46.714844 225.132812 46.714844 C 224.886719 46.714844 224.722656 46.675781 224.648438 46.601562 C 224.578125 46.53125 224.546875 46.382812 224.546875 46.164062 C 224.546875 45.753906 224.582031 45.496094 224.65625 45.382812 C 224.730469 45.269531 224.890625 45.214844 225.144531 45.214844 Z M 225.144531 45.214844 "/>
<path style=" stroke:none;fill-rule:nonzero;fill:rgb(100%,100%,100%);fill-opacity:1;" d="M 231.046875 48.28125 C 230.675781 48.28125 230.367188 48.40625 230.125 48.652344 C 229.886719 48.894531 229.765625 49.203125 229.765625 49.585938 C 229.765625 49.96875 229.886719 50.285156 230.125 50.535156 C 230.367188 50.785156 230.675781 50.910156 231.046875 50.910156 C 231.421875 50.910156 231.730469 50.785156 231.972656 50.535156 C 232.214844 50.285156 232.335938 49.96875 232.335938 49.585938 C 232.335938 49.203125 232.214844 48.894531 231.972656 48.652344 C 231.730469 48.40625 231.425781 48.28125 231.046875 48.28125 Z M 231.046875 47.273438 C 231.824219 47.273438 232.453125 47.488281 232.933594 47.925781 C 233.414062 48.359375 233.65625 48.914062 233.65625 49.59375 C 233.65625 50.277344 233.414062 50.835938 232.933594 51.269531 C 232.453125 51.703125 231.824219 51.917969 231.046875 51.917969 C 230.277344 51.917969 229.648438 51.703125 229.167969 51.269531 C 228.6875 50.835938 228.445312 50.277344 228.445312 49.59375 C 228.445312 48.914062 228.6875 48.359375 229.167969 47.925781 C 229.652344 47.488281 230.28125 47.273438 231.046875 47.273438 Z M 231.046875 47.273438 "/>
<path style=" stroke:none;fill-rule:nonzero;fill:rgb(100%,100%,100%);fill-opacity:1;" d="M 238.945312 50.742188 L 239.007812 50.742188 C 239.183594 50.742188 239.316406 50.789062 239.40625 50.875 C 239.496094 50.960938 239.542969 51.09375 239.542969 51.269531 C 239.542969 51.457031 239.496094 51.59375 239.402344 51.675781 C 239.3125 51.757812 239.160156 51.800781 238.945312 51.800781 L 237.765625 51.800781 C 237.554688 51.800781 237.398438 51.757812 237.300781 51.675781 C 237.210938 51.59375 237.164062 51.457031 237.164062 51.269531 C 237.164062 51.09375 237.207031 50.960938 237.296875 50.875 C 237.390625 50.789062 237.527344 50.742188 237.710938 50.742188 L 237.765625 50.742188 L 237.765625 49.359375 C 237.765625 48.976562 237.710938 48.707031 237.605469 48.546875 C 237.5 48.382812 237.320312 48.300781 237.074219 48.300781 C 236.808594 48.300781 236.59375 48.398438 236.421875 48.59375 C 236.257812 48.785156 236.175781 49.039062 236.175781 49.359375 L 236.175781 50.742188 L 236.230469 50.742188 C 236.410156 50.742188 236.546875 50.789062 236.636719 50.875 C 236.726562 50.960938 236.773438 51.09375 236.773438 51.269531 C 236.773438 51.457031 236.726562 51.59375 236.632812 51.675781 C 236.539062 51.757812 236.386719 51.800781 236.175781 51.800781 L 234.984375 51.800781 C 234.773438 51.800781 234.621094 51.757812 234.527344 51.675781 C 234.433594 51.59375 234.386719 51.457031 234.386719 51.269531 C 234.386719 51.09375 234.433594 50.960938 234.523438 50.875 C 234.613281 50.789062 234.746094 50.742188 234.929688 50.742188 L 234.984375 50.742188 L 234.984375 48.425781 L 234.90625 48.425781 C 234.734375 48.425781 234.601562 48.382812 234.515625 48.296875 C 234.425781 48.207031 234.378906 48.078125 234.378906 47.910156 C 234.378906 47.722656 234.425781 47.585938 234.519531 47.503906 C 234.609375 47.421875 234.765625 47.378906 234.984375 47.378906 L 235.800781 47.378906 C 235.890625 47.378906 235.957031 47.394531 236.003906 47.429688 C 236.050781 47.464844 236.074219 47.515625 236.074219 47.585938 L 236.074219 47.957031 C 236.21875 47.726562 236.40625 47.554688 236.632812 47.441406 C 236.863281 47.324219 237.128906 47.261719 237.429688 47.261719 C 237.9375 47.261719 238.316406 47.417969 238.566406 47.726562 C 238.816406 48.039062 238.945312 48.507812 238.945312 49.144531 Z M 238.945312 50.742188 "/>
<path style=" stroke:none;fill-rule:nonzero;fill:rgb(100%,63.137255%,0.392157%);fill-opacity:1;" d="M 88.554688 13.175781 L 88.554688 30.394531 L 82.882812 30.394531 L 82.882812 13.175781 L 78.5 13.175781 L 78.5 8.199219 L 92.910156 8.199219 L 92.910156 13.175781 Z M 88.554688 13.175781 "/>
<path style=" stroke:none;fill-rule:nonzero;fill:rgb(100%,63.137255%,0.392157%);fill-opacity:1;" d="M 103.628906 30.394531 L 103.628906 21.347656 C 103.628906 20.300781 103.453125 19.496094 103.097656 18.929688 C 102.660156 18.21875 101.941406 17.863281 100.945312 17.863281 C 99.9375 17.863281 99.203125 18.175781 98.746094 18.796875 C 98.355469 19.335938 98.160156 20.121094 98.160156 21.15625 L 98.160156 30.394531 L 93.175781 30.394531 L 93.175781 8.199219 L 98.160156 8.199219 L 98.160156 15.285156 L 98.21875 15.285156 C 98.628906 14.554688 99.246094 14.007812 100.066406 13.644531 C 100.769531 13.332031 101.585938 13.175781 102.511719 13.175781 C 104.488281 13.175781 105.996094 13.789062 107.042969 15.007812 C 107.757812 15.828125 108.214844 16.789062 108.421875 17.890625 C 108.507812 18.332031 108.5625 18.847656 108.582031 19.441406 C 108.589844 19.675781 108.601562 19.949219 108.609375 20.261719 L 108.609375 30.394531 Z M 103.628906 30.394531 "/>
<path style=" stroke:none;fill-rule:nonzero;fill:rgb(100%,63.137255%,0.392157%);fill-opacity:1;" d="M 121.058594 30.394531 L 121.058594 28.621094 L 121 28.621094 C 120.589844 29.46875 119.992188 30.082031 119.210938 30.453125 C 118.535156 30.773438 117.691406 30.933594 116.675781 30.933594 C 114.554688 30.933594 112.921875 30.238281 111.777344 28.839844 C 111.152344 28.058594 110.738281 27.25 110.53125 26.410156 C 110.367188 25.777344 110.285156 24.875 110.285156 23.703125 L 110.285156 13.75 L 115.269531 13.75 L 115.269531 22.957031 C 115.269531 24.03125 115.433594 24.820312 115.765625 25.328125 C 116.175781 25.960938 116.898438 26.277344 117.9375 26.277344 C 119.839844 26.277344 120.792969 25.152344 120.792969 22.898438 L 120.792969 13.75 L 125.777344 13.75 L 125.777344 30.394531 Z M 121.058594 30.394531 "/>
<path style=" stroke:none;fill-rule:nonzero;fill:rgb(100%,63.137255%,0.392157%);fill-opacity:1;" d="M 144.75 22.0625 C 144.75 24.601562 143.890625 26.707031 142.167969 28.386719 C 140.457031 30.066406 138.324219 30.90625 135.761719 30.90625 C 133.203125 30.90625 131.070312 30.066406 129.371094 28.386719 C 127.652344 26.707031 126.792969 24.601562 126.792969 22.0625 C 126.792969 19.515625 127.652344 17.402344 129.371094 15.722656 C 131.070312 14.046875 133.203125 13.207031 135.761719 13.207031 C 138.324219 13.207031 140.457031 14.046875 142.167969 15.722656 C 143.890625 17.402344 144.75 19.515625 144.75 22.0625 Z M 139.765625 22.0625 C 139.765625 20.910156 139.386719 19.929688 138.636719 19.121094 C 137.863281 18.28125 136.90625 17.863281 135.761719 17.863281 C 134.628906 17.863281 133.675781 18.28125 132.90625 19.121094 C 132.152344 19.929688 131.777344 20.910156 131.777344 22.0625 C 131.777344 23.203125 132.152344 24.1875 132.90625 25.003906 C 133.675781 25.835938 134.628906 26.25 135.761719 26.25 C 136.90625 26.25 137.863281 25.835938 138.636719 25.003906 C 139.386719 24.1875 139.765625 23.203125 139.765625 22.0625 Z M 139.765625 22.0625 "/>
<path style=" stroke:none;fill-rule:nonzero;fill:rgb(100%,63.137255%,0.392157%);fill-opacity:1;" d="M 162.605469 24.070312 C 162.125 26.097656 161.074219 27.753906 159.453125 29.03125 C 157.839844 30.300781 155.980469 30.933594 153.867188 30.933594 C 151.375 30.933594 149.269531 30.070312 147.550781 28.34375 C 145.820312 26.625 144.957031 24.523438 144.957031 22.035156 C 144.957031 19.566406 145.800781 17.476562 147.492188 15.769531 C 149.191406 14.039062 151.277344 13.175781 153.75 13.175781 C 155.910156 13.175781 157.808594 13.816406 159.4375 15.09375 C 161.101562 16.382812 162.144531 18.078125 162.574219 20.175781 L 157.535156 20.175781 C 156.808594 18.613281 155.570312 17.832031 153.808594 17.832031 C 152.648438 17.832031 151.707031 18.257812 150.996094 19.105469 C 150.3125 19.90625 149.96875 20.890625 149.96875 22.0625 C 149.96875 23.261719 150.324219 24.257812 151.039062 25.050781 C 151.78125 25.871094 152.746094 26.277344 153.925781 26.277344 C 155.558594 26.277344 156.761719 25.542969 157.535156 24.070312 Z M 162.605469 24.070312 "/>
<path style=" stroke:none;fill-rule:nonzero;fill:rgb(100%,63.137255%,0.392157%);fill-opacity:1;" d="M 182.957031 30.394531 L 177.105469 30.394531 L 169.6875 8.199219 L 175.507812 8.199219 L 179.980469 23.761719 L 180.054688 23.761719 L 184.554688 8.199219 L 190.402344 8.199219 Z M 182.957031 30.394531 "/>
<path style=" stroke:none;fill-rule:nonzero;fill:rgb(100%,63.137255%,0.392157%);fill-opacity:1;" d="M 201.046875 30.394531 L 201.046875 28.59375 L 200.988281 28.59375 C 200.566406 29.390625 199.867188 30.003906 198.890625 30.421875 C 198.050781 30.78125 197.128906 30.964844 196.121094 30.964844 C 193.609375 30.964844 191.570312 30.101562 190.007812 28.371094 C 188.503906 26.695312 187.75 24.589844 187.75 22.0625 C 187.75 19.574219 188.519531 17.484375 190.050781 15.796875 C 191.644531 14.050781 193.667969 13.175781 196.121094 13.175781 C 197.117188 13.175781 198.035156 13.363281 198.875 13.734375 C 199.816406 14.144531 200.519531 14.738281 200.988281 15.519531 L 201.046875 15.519531 L 201.046875 13.75 L 206.03125 13.75 L 206.03125 30.394531 Z M 201.046875 22.0625 C 201.046875 20.84375 200.652344 19.832031 199.859375 19.03125 C 199.066406 18.234375 198.066406 17.832031 196.855469 17.832031 C 195.652344 17.832031 194.660156 18.253906 193.878906 19.089844 C 193.117188 19.902344 192.734375 20.910156 192.734375 22.121094 C 192.734375 23.28125 193.128906 24.269531 193.921875 25.078125 C 194.734375 25.898438 195.71875 26.308594 196.882812 26.308594 C 198.085938 26.308594 199.082031 25.902344 199.875 25.09375 C 200.65625 24.285156 201.046875 23.273438 201.046875 22.0625 Z M 201.046875 22.0625 "/>
<path style=" stroke:none;fill-rule:nonzero;fill:rgb(100%,63.137255%,0.392157%);fill-opacity:1;" d="M 218.316406 30.394531 L 218.316406 21.300781 C 218.316406 20.21875 218.160156 19.414062 217.847656 18.886719 C 217.445312 18.203125 216.734375 17.863281 215.707031 17.863281 C 214.621094 17.863281 213.855469 18.195312 213.40625 18.855469 C 213.035156 19.402344 212.847656 20.234375 212.847656 21.347656 L 212.847656 30.394531 L 207.863281 30.394531 L 207.863281 13.75 L 212.511719 13.75 L 212.511719 15.519531 L 212.585938 15.519531 C 213.542969 13.957031 215.050781 13.175781 217.113281 13.175781 C 218.804688 13.175781 220.226562 13.660156 221.378906 14.625 C 222.105469 15.230469 222.621094 16.046875 222.933594 17.070312 C 223.179688 17.871094 223.300781 18.84375 223.300781 19.984375 L 223.300781 30.394531 Z M 218.316406 30.394531 "/>
<path style=" stroke:none;fill-rule:nonzero;fill:rgb(100%,63.137255%,0.392157%);fill-opacity:1;" d="M 242.300781 29.089844 C 242.289062 29.34375 242.285156 29.578125 242.285156 29.792969 C 242.257812 30.320312 242.214844 30.792969 242.167969 31.210938 C 242.023438 32.246094 241.734375 33.136719 241.304688 33.875 C 240.53125 35.175781 239.300781 36.175781 237.609375 36.878906 C 236.132812 37.492188 234.554688 37.800781 232.875 37.800781 C 231.351562 37.800781 229.984375 37.554688 228.785156 37.066406 C 227.425781 36.511719 226.355469 35.667969 225.574219 34.535156 C 225.007812 33.714844 224.664062 32.851562 224.546875 31.945312 L 230.324219 31.945312 C 230.8125 33.046875 231.78125 33.597656 233.226562 33.597656 C 235.933594 33.597656 237.285156 32.089844 237.285156 29.074219 L 237.285156 28.5625 L 237.226562 28.5625 C 236.808594 29.332031 236.15625 29.929688 235.277344 30.347656 C 234.476562 30.738281 233.601562 30.933594 232.652344 30.933594 C 230.203125 30.933594 228.179688 30.082031 226.585938 28.371094 C 225.03125 26.714844 224.253906 24.648438 224.253906 22.179688 C 224.253906 19.671875 225.023438 17.5625 226.554688 15.855469 C 228.148438 14.089844 230.183594 13.207031 232.652344 13.207031 C 233.601562 13.207031 234.460938 13.367188 235.234375 13.691406 C 236.132812 14.058594 236.808594 14.601562 237.257812 15.316406 L 237.316406 15.316406 L 237.316406 13.75 L 242.300781 13.75 Z M 237.316406 22.152344 C 237.316406 20.921875 236.949219 19.90625 236.214844 19.105469 C 235.453125 18.277344 234.46875 17.863281 233.257812 17.863281 C 232.121094 17.863281 231.164062 18.273438 230.382812 19.089844 C 229.621094 19.890625 229.238281 20.863281 229.238281 22.003906 C 229.238281 23.183594 229.605469 24.1875 230.339844 25.003906 C 231.089844 25.855469 232.054688 26.277344 233.226562 26.277344 C 234.429688 26.277344 235.410156 25.894531 236.171875 25.121094 C 236.933594 24.34375 237.316406 23.351562 237.316406 22.152344 Z M 237.316406 22.152344 "/>
</g>
</svg>
