<svg width="248" height="60" viewBox="0 0 1183 300" fill="none" xmlns="http://www.w3.org/2000/svg">
<rect width="300" height="300" fill="white"/>
<rect x="5.9816" y="6.44171" width="92.9448" height="191.411" fill="#786D73"/>
<path d="M127.914 6.44171H295.399V197.853H103.067V56.135H127.914V6.44171Z" fill="#FFA101"/>
<rect x="103.067" y="201.994" width="192.331" height="92.9448" fill="#786D73"/>
<path d="M5.9816 201.994H98.9264V266.871H91.5644V294.939H5.9816V201.994Z" fill="#FFA101"/>
<path d="M403.084 253.76H403.491C404.352 253.76 405.006 253.984 405.453 254.43C405.899 254.861 406.123 255.499 406.123 256.344C406.123 257.285 405.883 257.963 405.405 258.378C404.942 258.793 404.169 259 403.084 259H395.882C394.782 259 394 258.801 393.538 258.402C393.075 257.987 392.844 257.301 392.844 256.344C392.844 255.419 393.075 254.757 393.538 254.358C394 253.96 394.782 253.76 395.882 253.76H396.72L395.739 250.961H385.403L384.374 253.76H385.211C386.296 253.76 387.07 253.968 387.532 254.382C388.011 254.781 388.25 255.435 388.25 256.344C388.25 257.285 388.011 257.963 387.532 258.378C387.07 258.793 386.296 259 385.211 259H379.039C377.938 259 377.156 258.793 376.694 258.378C376.231 257.963 376 257.285 376 256.344C376 255.499 376.223 254.861 376.67 254.43C377.117 253.984 377.771 253.76 378.632 253.76H379.039L385.451 235.912H383.537C382.452 235.912 381.67 235.704 381.192 235.29C380.729 234.875 380.498 234.205 380.498 233.28C380.498 232.339 380.729 231.661 381.192 231.246C381.67 230.831 382.452 230.624 383.537 230.624H392.509C393.928 230.624 394.925 231.39 395.5 232.921V232.993L403.084 253.76ZM390.547 235.912L387.078 246.008H394.016L390.547 235.912Z" fill="white"/>
<path d="M419.377 246.008V253.76H425.024C426.109 253.76 426.874 253.96 427.321 254.358C427.783 254.757 428.015 255.419 428.015 256.344C428.015 257.285 427.783 257.963 427.321 258.378C426.874 258.793 426.109 259 425.024 259H411.649C410.549 259 409.767 258.793 409.305 258.378C408.842 257.963 408.611 257.285 408.611 256.344C408.611 255.419 408.834 254.757 409.281 254.358C409.743 253.96 410.533 253.76 411.649 253.76H413.468V242.132H412.439C411.354 242.132 410.581 241.933 410.118 241.534C409.672 241.119 409.448 240.442 409.448 239.5C409.448 238.559 409.664 237.889 410.094 237.491C410.541 237.092 411.322 236.893 412.439 236.893H417.535C417.966 236.893 418.301 236.988 418.54 237.18C418.779 237.355 418.899 237.602 418.899 237.921V241.462C420.638 239.596 422.257 238.264 423.756 237.467C425.271 236.669 426.898 236.271 428.637 236.271C430.216 236.271 431.468 236.629 432.393 237.347C433.318 238.049 433.781 238.998 433.781 240.194C433.781 241.119 433.462 241.885 432.824 242.491C432.186 243.081 431.364 243.376 430.359 243.376C429.642 243.376 428.788 243.113 427.799 242.587C426.826 242.061 426.148 241.797 425.766 241.797C425 241.797 424.099 242.14 423.062 242.826C422.025 243.512 420.797 244.573 419.377 246.008Z" fill="white"/>
<path d="M456.989 238.185C457.18 237.562 457.475 237.1 457.874 236.797C458.289 236.478 458.815 236.318 459.453 236.318C460.314 236.318 460.929 236.582 461.295 237.108C461.662 237.618 461.846 238.512 461.846 239.788V243.711C461.846 244.684 461.646 245.402 461.248 245.865C460.849 246.327 460.235 246.559 459.405 246.559C458.815 246.559 458.321 246.423 457.922 246.152C457.523 245.881 457.1 245.362 456.654 244.597C456.016 243.512 455.178 242.715 454.142 242.204C453.105 241.678 451.837 241.415 450.337 241.415C448.471 241.415 446.94 242.029 445.744 243.257C444.563 244.469 443.973 246.024 443.973 247.922C443.973 249.916 444.587 251.519 445.815 252.731C447.044 253.944 448.694 254.55 450.768 254.55C452.65 254.55 454.516 254.031 456.367 252.995C458.233 251.942 459.373 251.416 459.788 251.416C460.378 251.416 460.865 251.647 461.248 252.109C461.646 252.556 461.846 253.122 461.846 253.808C461.846 255.307 460.705 256.647 458.424 257.828C456.159 259.008 453.464 259.598 450.337 259.598C446.477 259.598 443.335 258.514 440.911 256.344C438.502 254.175 437.298 251.384 437.298 247.97C437.298 244.637 438.494 241.861 440.887 239.644C443.279 237.427 446.294 236.318 449.931 236.318C451.159 236.318 452.355 236.47 453.52 236.773C454.684 237.076 455.84 237.547 456.989 238.185Z" fill="white"/>
<path d="M475.459 239.309C476.018 238.336 476.807 237.594 477.828 237.084C478.849 236.574 480.069 236.318 481.489 236.318C484.009 236.318 485.947 237.052 487.303 238.52C488.674 239.987 489.36 242.092 489.36 244.836V253.76H489.767C490.612 253.76 491.25 253.984 491.681 254.43C492.128 254.861 492.351 255.499 492.351 256.344C492.351 257.285 492.12 257.963 491.657 258.378C491.211 258.793 490.445 259 489.36 259H483.427C482.358 259 481.592 258.793 481.13 258.378C480.683 257.963 480.46 257.285 480.46 256.344C480.46 255.483 480.675 254.837 481.106 254.406C481.537 253.976 482.183 253.76 483.044 253.76H483.427V246.798C483.427 244.756 483.172 243.345 482.661 242.563C482.167 241.765 481.313 241.367 480.101 241.367C478.825 241.367 477.732 241.885 476.823 242.922C475.914 243.943 475.459 245.235 475.459 246.798V253.76H475.842C476.704 253.76 477.35 253.984 477.78 254.43C478.227 254.861 478.45 255.499 478.45 256.344C478.45 257.285 478.219 257.963 477.756 258.378C477.294 258.793 476.528 259 475.459 259H469.526C468.425 259 467.652 258.801 467.205 258.402C466.758 257.987 466.535 257.301 466.535 256.344C466.535 255.499 466.75 254.861 467.181 254.43C467.628 253.984 468.274 253.76 469.119 253.76H469.526V232.993H469.119C468.274 232.993 467.62 232.769 467.157 232.323C466.711 231.86 466.487 231.198 466.487 230.337C466.487 229.396 466.719 228.718 467.181 228.303C467.644 227.889 468.425 227.681 469.526 227.681H474.024C474.566 227.681 474.941 227.793 475.148 228.016C475.356 228.239 475.459 228.654 475.459 229.26V239.309Z" fill="white"/>
<path d="M512.09 253.76H517.234C518.334 253.76 519.116 253.96 519.579 254.358C520.041 254.757 520.272 255.419 520.272 256.344C520.272 257.285 520.033 257.963 519.555 258.378C519.092 258.793 518.319 259 517.234 259H501.06C499.975 259 499.194 258.793 498.715 258.378C498.253 257.963 498.021 257.285 498.021 256.344C498.021 255.419 498.245 254.757 498.691 254.358C499.154 253.96 499.944 253.76 501.06 253.76H506.204V242.132H503.5C502.432 242.132 501.666 241.933 501.204 241.534C500.741 241.119 500.51 240.442 500.51 239.5C500.51 238.559 500.733 237.889 501.18 237.491C501.626 237.092 502.4 236.893 503.5 236.893H510.702C511.149 236.893 511.492 236.988 511.731 237.18C511.97 237.355 512.09 237.602 512.09 237.921V253.76ZM508.645 226.078C509.809 226.078 510.583 226.301 510.965 226.748C511.348 227.195 511.54 228.263 511.54 229.954C511.54 231.581 511.364 232.594 511.013 232.993C510.678 233.375 509.873 233.567 508.597 233.567C507.353 233.567 506.547 233.383 506.18 233.017C505.829 232.65 505.654 231.916 505.654 230.815C505.654 228.774 505.837 227.474 506.204 226.916C506.571 226.357 507.384 226.078 508.645 226.078Z" fill="white"/>
<path d="M536.518 238.232H543.815C544.916 238.232 545.698 238.432 546.16 238.831C546.623 239.229 546.854 239.891 546.854 240.816C546.854 241.757 546.615 242.435 546.136 242.85C545.674 243.265 544.9 243.472 543.815 243.472H536.518V249.597C536.518 251.32 536.781 252.5 537.308 253.138C537.834 253.776 538.759 254.095 540.083 254.095C541.327 254.095 542.795 253.736 544.485 253.019C546.176 252.301 547.309 251.942 547.883 251.942C548.537 251.942 549.095 252.205 549.558 252.731C550.036 253.242 550.275 253.864 550.275 254.598C550.275 255.826 549.159 256.95 546.926 257.971C544.709 258.976 542.188 259.479 539.365 259.479C537.722 259.479 536.279 259.255 535.035 258.809C533.791 258.362 532.81 257.724 532.092 256.895C531.565 256.257 531.191 255.491 530.967 254.598C530.744 253.704 530.632 252.213 530.632 250.124V249.597V243.472H528.383C527.299 243.472 526.525 243.265 526.062 242.85C525.616 242.435 525.393 241.757 525.393 240.816C525.393 239.875 525.616 239.213 526.062 238.831C526.509 238.432 527.283 238.232 528.383 238.232H530.632V232.634C530.632 231.533 530.856 230.76 531.302 230.313C531.765 229.866 532.522 229.643 533.575 229.643C534.628 229.643 535.378 229.866 535.824 230.313C536.287 230.76 536.518 231.533 536.518 232.634V238.232Z" fill="white"/>
<path d="M561.09 249.358C561.505 251.128 562.302 252.452 563.482 253.33C564.679 254.207 566.266 254.646 568.244 254.646C570.222 254.646 572.175 254.167 574.105 253.21C576.035 252.237 577.2 251.75 577.599 251.75C578.189 251.75 578.667 251.974 579.034 252.42C579.417 252.851 579.608 253.409 579.608 254.095C579.608 255.595 578.5 256.887 576.283 257.971C574.066 259.056 571.322 259.598 568.052 259.598C564.192 259.598 561.05 258.514 558.625 256.344C556.217 254.175 555.013 251.384 555.013 247.97C555.013 244.573 556.217 241.789 558.625 239.62C561.05 237.451 564.192 236.366 568.052 236.366C571.498 236.366 574.353 237.387 576.618 239.429C578.883 241.454 580.015 243.943 580.015 246.894C580.015 247.835 579.784 248.481 579.321 248.832C578.875 249.182 577.942 249.358 576.522 249.358H561.09ZM573.986 245.625C573.715 244.142 573.013 242.994 571.88 242.18C570.764 241.367 569.304 240.96 567.502 240.96C565.763 240.96 564.36 241.351 563.291 242.132C562.238 242.898 561.505 244.062 561.09 245.625H573.986Z" fill="white"/>
<path d="M604.132 238.185C604.324 237.562 604.619 237.1 605.018 236.797C605.432 236.478 605.959 236.318 606.597 236.318C607.458 236.318 608.072 236.582 608.439 237.108C608.806 237.618 608.989 238.512 608.989 239.788V243.711C608.989 244.684 608.79 245.402 608.391 245.865C607.992 246.327 607.378 246.559 606.549 246.559C605.959 246.559 605.464 246.423 605.065 246.152C604.667 245.881 604.244 245.362 603.797 244.597C603.159 243.512 602.322 242.715 601.285 242.204C600.248 241.678 598.98 241.415 597.481 241.415C595.615 241.415 594.083 242.029 592.887 243.257C591.707 244.469 591.117 246.024 591.117 247.922C591.117 249.916 591.731 251.519 592.959 252.731C594.187 253.944 595.838 254.55 597.912 254.55C599.794 254.55 601.66 254.031 603.51 252.995C605.376 251.942 606.517 251.416 606.932 251.416C607.522 251.416 608.008 251.647 608.391 252.109C608.79 252.556 608.989 253.122 608.989 253.808C608.989 255.307 607.849 256.647 605.568 257.828C603.303 259.008 600.607 259.598 597.481 259.598C593.621 259.598 590.479 258.514 588.054 256.344C585.646 254.175 584.441 251.384 584.441 247.97C584.441 244.637 585.638 241.861 588.03 239.644C590.423 237.427 593.438 236.318 597.074 236.318C598.302 236.318 599.499 236.47 600.663 236.773C601.827 237.076 602.984 237.547 604.132 238.185Z" fill="white"/>
<path d="M624.804 238.232H632.102C633.202 238.232 633.984 238.432 634.446 238.831C634.909 239.229 635.14 239.891 635.14 240.816C635.14 241.757 634.901 242.435 634.422 242.85C633.96 243.265 633.186 243.472 632.102 243.472H624.804V249.597C624.804 251.32 625.067 252.5 625.594 253.138C626.12 253.776 627.045 254.095 628.369 254.095C629.613 254.095 631.081 253.736 632.771 253.019C634.462 252.301 635.595 251.942 636.169 251.942C636.823 251.942 637.381 252.205 637.844 252.731C638.322 253.242 638.562 253.864 638.562 254.598C638.562 255.826 637.445 256.95 635.212 257.971C632.995 258.976 630.475 259.479 627.651 259.479C626.008 259.479 624.565 259.255 623.321 258.809C622.077 258.362 621.096 257.724 620.378 256.895C619.852 256.257 619.477 255.491 619.253 254.598C619.03 253.704 618.918 252.213 618.918 250.124V249.597V243.472H616.669C615.585 243.472 614.811 243.265 614.349 242.85C613.902 242.435 613.679 241.757 613.679 240.816C613.679 239.875 613.902 239.213 614.349 238.831C614.795 238.432 615.569 238.232 616.669 238.232H618.918V232.634C618.918 231.533 619.142 230.76 619.588 230.313C620.051 229.866 620.809 229.643 621.861 229.643C622.914 229.643 623.664 229.866 624.11 230.313C624.573 230.76 624.804 231.533 624.804 232.634V238.232Z" fill="white"/>
<path d="M659.664 242.132H659.281C658.42 242.132 657.766 241.909 657.319 241.462C656.889 241.016 656.673 240.362 656.673 239.5C656.673 238.559 656.897 237.889 657.343 237.491C657.79 237.092 658.563 236.893 659.664 236.893H664.186C664.617 236.893 664.952 236.988 665.191 237.18C665.43 237.355 665.55 237.602 665.55 237.921V253.76H665.933C666.794 253.76 667.448 253.984 667.895 254.43C668.357 254.877 668.588 255.515 668.588 256.344C668.588 257.301 668.357 257.987 667.895 258.402C667.432 258.801 666.65 259 665.55 259H661.53C661.084 259 660.733 258.904 660.478 258.713C660.238 258.521 660.119 258.258 660.119 257.923V256.105C659.353 257.253 658.412 258.115 657.295 258.689C656.195 259.263 654.895 259.55 653.396 259.55C650.827 259.55 648.921 258.777 647.677 257.229C646.433 255.682 645.811 253.314 645.811 250.124V242.132H645.404C644.543 242.132 643.889 241.909 643.442 241.462C642.996 241.016 642.772 240.362 642.772 239.5C642.772 238.559 642.996 237.889 643.442 237.491C643.905 237.092 644.694 236.893 645.811 236.893H650.309C650.74 236.893 651.067 236.988 651.29 237.18C651.513 237.355 651.625 237.602 651.625 237.921V249.047C651.625 251.009 651.896 252.389 652.438 253.186C652.981 253.984 653.874 254.382 655.118 254.382C656.442 254.382 657.527 253.896 658.372 252.923C659.233 251.934 659.664 250.642 659.664 249.047V242.132Z" fill="white"/>
<path d="M684.236 246.008V253.76H689.882C690.967 253.76 691.733 253.96 692.179 254.358C692.642 254.757 692.873 255.419 692.873 256.344C692.873 257.285 692.642 257.963 692.179 258.378C691.733 258.793 690.967 259 689.882 259H676.508C675.407 259 674.626 258.793 674.163 258.378C673.701 257.963 673.469 257.285 673.469 256.344C673.469 255.419 673.693 254.757 674.139 254.358C674.602 253.96 675.391 253.76 676.508 253.76H678.326V242.132H677.297C676.213 242.132 675.439 241.933 674.977 241.534C674.53 241.119 674.307 240.442 674.307 239.5C674.307 238.559 674.522 237.889 674.953 237.491C675.399 237.092 676.181 236.893 677.297 236.893H682.394C682.824 236.893 683.159 236.988 683.398 237.18C683.638 237.355 683.757 237.602 683.757 237.921V241.462C685.496 239.596 687.115 238.264 688.614 237.467C690.13 236.669 691.757 236.271 693.495 236.271C695.074 236.271 696.326 236.629 697.251 237.347C698.177 238.049 698.639 238.998 698.639 240.194C698.639 241.119 698.32 241.885 697.682 242.491C697.044 243.081 696.223 243.376 695.218 243.376C694.5 243.376 693.647 243.113 692.658 242.587C691.685 242.061 691.007 241.797 690.624 241.797C689.858 241.797 688.957 242.14 687.92 242.826C686.884 243.512 685.655 244.573 684.236 246.008Z" fill="white"/>
<path d="M708.233 249.358C708.648 251.128 709.446 252.452 710.626 253.33C711.822 254.207 713.409 254.646 715.387 254.646C717.365 254.646 719.319 254.167 721.249 253.21C723.179 252.237 724.343 251.75 724.742 251.75C725.332 251.75 725.811 251.974 726.178 252.42C726.561 252.851 726.752 253.409 726.752 254.095C726.752 255.595 725.643 256.887 723.426 257.971C721.209 259.056 718.466 259.598 715.196 259.598C711.336 259.598 708.194 258.514 705.769 256.344C703.361 254.175 702.156 251.384 702.156 247.97C702.156 244.573 703.361 241.789 705.769 239.62C708.194 237.451 711.336 236.366 715.196 236.366C718.641 236.366 721.496 237.387 723.761 239.429C726.026 241.454 727.159 243.943 727.159 246.894C727.159 247.835 726.927 248.481 726.465 248.832C726.018 249.182 725.085 249.358 723.666 249.358H708.233ZM721.129 245.625C720.858 244.142 720.156 242.994 719.024 242.18C717.907 241.367 716.448 240.96 714.646 240.96C712.907 240.96 711.503 241.351 710.435 242.132C709.382 242.898 708.648 244.062 708.233 245.625H721.129Z" fill="white"/>
<path d="M769.89 247.444C769.093 247.938 768.494 248.489 768.096 249.095C767.713 249.685 767.521 250.355 767.521 251.104C767.521 252.125 767.864 252.979 768.55 253.665C769.252 254.35 770.121 254.693 771.158 254.693C771.669 254.693 772.187 254.59 772.713 254.382C773.24 254.175 773.798 253.856 774.388 253.425L769.89 247.444ZM776.853 232.993C777.092 232.929 777.283 232.889 777.427 232.873C777.57 232.841 777.706 232.825 777.833 232.825C778.344 232.825 778.767 233.033 779.102 233.447C779.452 233.846 779.628 234.356 779.628 234.979C779.628 235.792 779.357 236.518 778.814 237.156C778.288 237.778 777.698 238.089 777.044 238.089C776.597 238.089 775.872 237.794 774.867 237.204C773.878 236.613 773.08 236.318 772.474 236.318C771.9 236.318 771.437 236.478 771.086 236.797C770.736 237.116 770.56 237.547 770.56 238.089C770.56 238.759 770.903 239.572 771.589 240.529C771.732 240.689 771.836 240.816 771.9 240.912L777.618 248.951C777.81 248.393 778.025 247.659 778.264 246.75C778.775 244.756 779.66 243.759 780.92 243.759H781.781H782.762C783.257 243.759 783.671 243.983 784.006 244.429C784.357 244.876 784.533 245.434 784.533 246.104C784.533 246.838 784.357 247.404 784.006 247.803C783.655 248.186 783.097 248.441 782.332 248.568C782.172 249.446 781.949 250.267 781.662 251.033C781.375 251.782 781.008 252.492 780.561 253.162L781.781 254.646H782.188C782.858 254.646 783.368 254.829 783.719 255.196C784.07 255.547 784.246 256.065 784.246 256.751C784.246 257.469 784.03 258.027 783.6 258.426C783.185 258.809 782.579 259 781.781 259H779.891C779.365 259 778.966 258.952 778.695 258.856C778.44 258.745 778.216 258.561 778.025 258.306L777.283 257.325C776.262 258.091 775.09 258.689 773.766 259.12C772.442 259.566 771.118 259.79 769.794 259.79C767.402 259.79 765.448 259.096 763.933 257.708C762.417 256.304 761.66 254.51 761.66 252.325C761.66 250.554 762.074 248.991 762.904 247.635C763.733 246.279 765.097 244.956 766.995 243.664L765.679 241.558C765.328 241.016 765.049 240.394 764.842 239.692C764.65 238.974 764.555 238.288 764.555 237.634C764.555 235.72 765.201 234.221 766.493 233.136C767.801 232.052 769.619 231.509 771.948 231.509C772.889 231.509 773.742 231.629 774.508 231.868C775.289 232.091 776.071 232.466 776.853 232.993Z" fill="white"/>
<path d="M839.969 231.414C840.288 230.839 840.615 230.433 840.95 230.193C841.285 229.954 841.707 229.834 842.218 229.834C842.999 229.834 843.55 230.042 843.869 230.457C844.204 230.871 844.371 231.581 844.371 232.586L844.419 238.807C844.419 239.907 844.236 240.649 843.869 241.032C843.518 241.415 842.872 241.606 841.931 241.606C841.261 241.606 840.742 241.446 840.375 241.127C840.025 240.808 839.722 240.218 839.466 239.357C839.052 237.842 838.39 236.757 837.48 236.103C836.571 235.433 835.311 235.098 833.7 235.098C831.244 235.098 829.362 235.928 828.054 237.586C826.746 239.245 826.092 241.646 826.092 244.788C826.092 247.914 826.754 250.315 828.078 251.99C829.402 253.665 831.292 254.502 833.748 254.502C835.423 254.502 837.265 253.944 839.275 252.827C841.301 251.711 842.577 251.152 843.103 251.152C843.725 251.152 844.243 251.416 844.658 251.942C845.089 252.468 845.304 253.122 845.304 253.904C845.304 255.307 844.068 256.631 841.596 257.875C839.123 259.12 836.34 259.742 833.246 259.742C829.067 259.742 825.685 258.362 823.101 255.603C820.517 252.843 819.225 249.238 819.225 244.788C819.225 240.497 820.533 236.932 823.149 234.093C825.765 231.254 829.083 229.834 833.102 229.834C834.235 229.834 835.351 229.962 836.452 230.217C837.552 230.472 838.725 230.871 839.969 231.414Z" fill="white"/>
<path d="M861.885 241.415C860.019 241.415 858.479 242.029 857.267 243.257C856.071 244.469 855.473 246.024 855.473 247.922C855.473 249.836 856.071 251.424 857.267 252.684C858.479 253.928 860.019 254.55 861.885 254.55C863.751 254.55 865.29 253.928 866.502 252.684C867.715 251.424 868.321 249.836 868.321 247.922C868.321 246.024 867.715 244.469 866.502 243.257C865.306 242.029 863.767 241.415 861.885 241.415ZM861.885 236.366C865.761 236.366 868.903 237.451 871.312 239.62C873.72 241.789 874.924 244.573 874.924 247.97C874.924 251.384 873.72 254.175 871.312 256.344C868.903 258.514 865.761 259.598 861.885 259.598C858.025 259.598 854.89 258.514 852.482 256.344C850.073 254.175 848.869 251.384 848.869 247.97C848.869 244.573 850.073 241.789 852.482 239.62C854.906 237.451 858.041 236.366 861.885 236.366Z" fill="white"/>
<path d="M901.362 253.712H901.673C902.567 253.712 903.237 253.936 903.683 254.382C904.13 254.813 904.353 255.467 904.353 256.344C904.353 257.285 904.122 257.963 903.659 258.378C903.213 258.793 902.447 259 901.362 259H895.477C894.408 259 893.634 258.793 893.156 258.378C892.693 257.963 892.462 257.285 892.462 256.344C892.462 255.467 892.685 254.813 893.132 254.382C893.594 253.936 894.28 253.712 895.189 253.712H895.477V246.798C895.477 244.884 895.205 243.528 894.663 242.73C894.137 241.917 893.251 241.51 892.007 241.51C890.683 241.51 889.599 241.997 888.753 242.97C887.924 243.927 887.509 245.203 887.509 246.798V253.712H887.796C888.706 253.712 889.383 253.936 889.83 254.382C890.277 254.813 890.5 255.467 890.5 256.344C890.5 257.285 890.269 257.963 889.806 258.378C889.344 258.793 888.578 259 887.509 259H881.576C880.507 259 879.741 258.793 879.279 258.378C878.816 257.963 878.585 257.285 878.585 256.344C878.585 255.467 878.808 254.813 879.255 254.382C879.702 253.936 880.379 253.712 881.289 253.712H881.576V242.132H881.169C880.308 242.132 879.654 241.917 879.207 241.486C878.76 241.04 878.537 240.394 878.537 239.548C878.537 238.607 878.768 237.929 879.231 237.515C879.694 237.1 880.475 236.893 881.576 236.893H885.643C886.09 236.893 886.425 236.98 886.648 237.156C886.887 237.331 887.007 237.586 887.007 237.921V239.788C887.741 238.639 888.674 237.778 889.806 237.204C890.955 236.613 892.279 236.318 893.778 236.318C896.33 236.318 898.228 237.092 899.472 238.639C900.732 240.186 901.362 242.547 901.362 245.721V253.712Z" fill="white"/>
<path d="M914.426 258.665C914.011 258.984 913.58 259.223 913.134 259.383C912.703 259.558 912.257 259.646 911.794 259.646C911.108 259.646 910.622 259.463 910.334 259.096C910.063 258.729 909.928 258.043 909.928 257.038V253.856C909.928 252.803 910.103 252.062 910.454 251.631C910.805 251.184 911.411 250.961 912.272 250.961C913.214 250.961 913.979 251.416 914.569 252.325C914.92 252.819 915.215 253.186 915.455 253.425C916.236 254.127 917.145 254.653 918.182 255.004C919.219 255.355 920.399 255.531 921.723 255.531C922.872 255.531 923.789 255.307 924.475 254.861C925.16 254.414 925.503 253.832 925.503 253.114C925.503 251.822 923.661 250.929 919.977 250.435C919.163 250.339 918.525 250.251 918.062 250.171C915.287 249.789 913.221 249.039 911.866 247.922C910.51 246.79 909.832 245.275 909.832 243.376C909.832 241.127 910.646 239.389 912.272 238.161C913.899 236.932 916.22 236.318 919.235 236.318C920.272 236.318 921.332 236.406 922.417 236.582C923.518 236.741 924.642 236.996 925.791 237.347C926.125 236.948 926.476 236.653 926.843 236.462C927.226 236.271 927.649 236.175 928.111 236.175C928.765 236.175 929.26 236.382 929.595 236.797C929.946 237.196 930.121 237.802 930.121 238.615V241.558C930.121 242.244 929.946 242.778 929.595 243.161C929.244 243.528 928.749 243.711 928.111 243.711C927.457 243.711 926.333 243.145 924.738 242.013C923.159 240.864 921.572 240.29 919.977 240.29C918.732 240.29 917.767 240.497 917.082 240.912C916.396 241.311 916.053 241.869 916.053 242.587C916.053 243.703 917.488 244.453 920.359 244.836C921.189 244.932 921.843 245.011 922.321 245.075C925.926 245.602 928.398 246.391 929.738 247.444C931.094 248.481 931.772 250.028 931.772 252.085C931.772 254.494 930.879 256.36 929.092 257.684C927.322 258.992 924.802 259.646 921.532 259.646C920.256 259.646 919.028 259.558 917.847 259.383C916.667 259.223 915.526 258.984 914.426 258.665Z" fill="white"/>
<path d="M948.52 238.232H955.817C956.918 238.232 957.7 238.432 958.162 238.831C958.625 239.229 958.856 239.891 958.856 240.816C958.856 241.757 958.617 242.435 958.138 242.85C957.676 243.265 956.902 243.472 955.817 243.472H948.52V249.597C948.52 251.32 948.783 252.5 949.31 253.138C949.836 253.776 950.761 254.095 952.085 254.095C953.329 254.095 954.797 253.736 956.487 253.019C958.178 252.301 959.311 251.942 959.885 251.942C960.539 251.942 961.097 252.205 961.56 252.731C962.038 253.242 962.277 253.864 962.277 254.598C962.277 255.826 961.161 256.95 958.928 257.971C956.711 258.976 954.19 259.479 951.367 259.479C949.724 259.479 948.281 259.255 947.037 258.809C945.792 258.362 944.812 257.724 944.094 256.895C943.567 256.257 943.193 255.491 942.969 254.598C942.746 253.704 942.634 252.213 942.634 250.124V249.597V243.472H940.385C939.301 243.472 938.527 243.265 938.064 242.85C937.618 242.435 937.395 241.757 937.395 240.816C937.395 239.875 937.618 239.213 938.064 238.831C938.511 238.432 939.285 238.232 940.385 238.232H942.634V232.634C942.634 231.533 942.858 230.76 943.304 230.313C943.767 229.866 944.524 229.643 945.577 229.643C946.63 229.643 947.38 229.866 947.826 230.313C948.289 230.76 948.52 231.533 948.52 232.634V238.232Z" fill="white"/>
<path d="M978.523 246.008V253.76H984.169C985.254 253.76 986.02 253.96 986.466 254.358C986.929 254.757 987.16 255.419 987.16 256.344C987.16 257.285 986.929 257.963 986.466 258.378C986.02 258.793 985.254 259 984.169 259H970.795C969.694 259 968.913 258.793 968.45 258.378C967.988 257.963 967.756 257.285 967.756 256.344C967.756 255.419 967.98 254.757 968.426 254.358C968.889 253.96 969.678 253.76 970.795 253.76H972.613V242.132H971.584C970.5 242.132 969.726 241.933 969.264 241.534C968.817 241.119 968.594 240.442 968.594 239.5C968.594 238.559 968.809 237.889 969.24 237.491C969.686 237.092 970.468 236.893 971.584 236.893H976.681C977.111 236.893 977.446 236.988 977.686 237.18C977.925 237.355 978.044 237.602 978.044 237.921V241.462C979.783 239.596 981.402 238.264 982.901 237.467C984.417 236.669 986.044 236.271 987.782 236.271C989.361 236.271 990.613 236.629 991.539 237.347C992.464 238.049 992.926 238.998 992.926 240.194C992.926 241.119 992.607 241.885 991.969 242.491C991.331 243.081 990.51 243.376 989.505 243.376C988.787 243.376 987.934 243.113 986.945 242.587C985.972 242.061 985.294 241.797 984.911 241.797C984.146 241.797 983.244 242.14 982.208 242.826C981.171 243.512 979.943 244.573 978.523 246.008Z" fill="white"/>
<path d="M1012.81 242.132H1012.43C1011.56 242.132 1010.91 241.909 1010.46 241.462C1010.03 241.016 1009.82 240.362 1009.82 239.5C1009.82 238.559 1010.04 237.889 1010.49 237.491C1010.93 237.092 1011.71 236.893 1012.81 236.893H1017.33C1017.76 236.893 1018.1 236.988 1018.34 237.18C1018.57 237.355 1018.69 237.602 1018.69 237.921V253.76H1019.08C1019.94 253.76 1020.59 253.984 1021.04 254.43C1021.5 254.877 1021.73 255.515 1021.73 256.344C1021.73 257.301 1021.5 257.987 1021.04 258.402C1020.58 258.801 1019.79 259 1018.69 259H1014.67C1014.23 259 1013.88 258.904 1013.62 258.713C1013.38 258.521 1013.26 258.258 1013.26 257.923V256.105C1012.5 257.253 1011.56 258.115 1010.44 258.689C1009.34 259.263 1008.04 259.55 1006.54 259.55C1003.97 259.55 1002.07 258.777 1000.82 257.229C999.578 255.682 998.956 253.314 998.956 250.124V242.132H998.549C997.688 242.132 997.034 241.909 996.587 241.462C996.14 241.016 995.917 240.362 995.917 239.5C995.917 238.559 996.14 237.889 996.587 237.491C997.049 237.092 997.839 236.893 998.956 236.893H1003.45C1003.88 236.893 1004.21 236.988 1004.43 237.18C1004.66 237.355 1004.77 237.602 1004.77 237.921V249.047C1004.77 251.009 1005.04 252.389 1005.58 253.186C1006.13 253.984 1007.02 254.382 1008.26 254.382C1009.59 254.382 1010.67 253.896 1011.52 252.923C1012.38 251.934 1012.81 250.642 1012.81 249.047V242.132Z" fill="white"/>
<path d="M1045.56 238.185C1045.75 237.562 1046.05 237.1 1046.45 236.797C1046.86 236.478 1047.39 236.318 1048.03 236.318C1048.89 236.318 1049.5 236.582 1049.87 237.108C1050.24 237.618 1050.42 238.512 1050.42 239.788V243.711C1050.42 244.684 1050.22 245.402 1049.82 245.865C1049.42 246.327 1048.81 246.559 1047.98 246.559C1047.39 246.559 1046.89 246.423 1046.5 246.152C1046.1 245.881 1045.67 245.362 1045.23 244.597C1044.59 243.512 1043.75 242.715 1042.72 242.204C1041.68 241.678 1040.41 241.415 1038.91 241.415C1037.05 241.415 1035.51 242.029 1034.32 243.257C1033.14 244.469 1032.55 246.024 1032.55 247.922C1032.55 249.916 1033.16 251.519 1034.39 252.731C1035.62 253.944 1037.27 254.55 1039.34 254.55C1041.22 254.55 1043.09 254.031 1044.94 252.995C1046.81 251.942 1047.95 251.416 1048.36 251.416C1048.95 251.416 1049.44 251.647 1049.82 252.109C1050.22 252.556 1050.42 253.122 1050.42 253.808C1050.42 255.307 1049.28 256.647 1047 257.828C1044.73 259.008 1042.04 259.598 1038.91 259.598C1035.05 259.598 1031.91 258.514 1029.48 256.344C1027.08 254.175 1025.87 251.384 1025.87 247.97C1025.87 244.637 1027.07 241.861 1029.46 239.644C1031.85 237.427 1034.87 236.318 1038.5 236.318C1039.73 236.318 1040.93 236.47 1042.09 236.773C1043.26 237.076 1044.41 237.547 1045.56 238.185Z" fill="white"/>
<path d="M1066.23 238.232H1073.53C1074.63 238.232 1075.41 238.432 1075.88 238.831C1076.34 239.229 1076.57 239.891 1076.57 240.816C1076.57 241.757 1076.33 242.435 1075.85 242.85C1075.39 243.265 1074.62 243.472 1073.53 243.472H1066.23V249.597C1066.23 251.32 1066.5 252.5 1067.02 253.138C1067.55 253.776 1068.48 254.095 1069.8 254.095C1071.04 254.095 1072.51 253.736 1074.2 253.019C1075.89 252.301 1077.03 251.942 1077.6 251.942C1078.25 251.942 1078.81 252.205 1079.27 252.731C1079.75 253.242 1079.99 253.864 1079.99 254.598C1079.99 255.826 1078.88 256.95 1076.64 257.971C1074.43 258.976 1071.91 259.479 1069.08 259.479C1067.44 259.479 1066 259.255 1064.75 258.809C1063.51 258.362 1062.53 257.724 1061.81 256.895C1061.28 256.257 1060.91 255.491 1060.68 254.598C1060.46 253.704 1060.35 252.213 1060.35 250.124V249.597V243.472H1058.1C1057.02 243.472 1056.24 243.265 1055.78 242.85C1055.33 242.435 1055.11 241.757 1055.11 240.816C1055.11 239.875 1055.33 239.213 1055.78 238.831C1056.23 238.432 1057 238.232 1058.1 238.232H1060.35V232.634C1060.35 231.533 1060.57 230.76 1061.02 230.313C1061.48 229.866 1062.24 229.643 1063.29 229.643C1064.34 229.643 1065.09 229.866 1065.54 230.313C1066 230.76 1066.23 231.533 1066.23 232.634V238.232Z" fill="white"/>
<path d="M1100.66 253.76H1105.81C1106.91 253.76 1107.69 253.96 1108.15 254.358C1108.62 254.757 1108.85 255.419 1108.85 256.344C1108.85 257.285 1108.61 257.963 1108.13 258.378C1107.67 258.793 1106.89 259 1105.81 259H1089.63C1088.55 259 1087.77 258.793 1087.29 258.378C1086.83 257.963 1086.6 257.285 1086.6 256.344C1086.6 255.419 1086.82 254.757 1087.27 254.358C1087.73 253.96 1088.52 253.76 1089.63 253.76H1094.78V242.132H1092.07C1091.01 242.132 1090.24 241.933 1089.78 241.534C1089.32 241.119 1089.08 240.442 1089.08 239.5C1089.08 238.559 1089.31 237.889 1089.75 237.491C1090.2 237.092 1090.97 236.893 1092.07 236.893H1099.28C1099.72 236.893 1100.07 236.988 1100.31 237.18C1100.54 237.355 1100.66 237.602 1100.66 237.921V253.76ZM1097.22 226.078C1098.38 226.078 1099.16 226.301 1099.54 226.748C1099.92 227.195 1100.11 228.263 1100.11 229.954C1100.11 231.581 1099.94 232.594 1099.59 232.993C1099.25 233.375 1098.45 233.567 1097.17 233.567C1095.93 233.567 1095.12 233.383 1094.75 233.017C1094.4 232.65 1094.23 231.916 1094.23 230.815C1094.23 228.774 1094.41 227.474 1094.78 226.916C1095.15 226.357 1095.96 226.078 1097.22 226.078Z" fill="white"/>
<path d="M1126.74 241.415C1124.88 241.415 1123.34 242.029 1122.13 243.257C1120.93 244.469 1120.33 246.024 1120.33 247.922C1120.33 249.836 1120.93 251.424 1122.13 252.684C1123.34 253.928 1124.88 254.55 1126.74 254.55C1128.61 254.55 1130.15 253.928 1131.36 252.684C1132.57 251.424 1133.18 249.836 1133.18 247.922C1133.18 246.024 1132.57 244.469 1131.36 243.257C1130.16 242.029 1128.63 241.415 1126.74 241.415ZM1126.74 236.366C1130.62 236.366 1133.76 237.451 1136.17 239.62C1138.58 241.789 1139.78 244.573 1139.78 247.97C1139.78 251.384 1138.58 254.175 1136.17 256.344C1133.76 258.514 1130.62 259.598 1126.74 259.598C1122.88 259.598 1119.75 258.514 1117.34 256.344C1114.93 254.175 1113.73 251.384 1113.73 247.97C1113.73 244.573 1114.93 241.789 1117.34 239.62C1119.76 237.451 1122.9 236.366 1126.74 236.366Z" fill="white"/>
<path d="M1166.22 253.712H1166.53C1167.42 253.712 1168.09 253.936 1168.54 254.382C1168.99 254.813 1169.21 255.467 1169.21 256.344C1169.21 257.285 1168.98 257.963 1168.52 258.378C1168.07 258.793 1167.31 259 1166.22 259H1160.33C1159.27 259 1158.49 258.793 1158.01 258.378C1157.55 257.963 1157.32 257.285 1157.32 256.344C1157.32 255.467 1157.54 254.813 1157.99 254.382C1158.45 253.936 1159.14 253.712 1160.05 253.712H1160.33V246.798C1160.33 244.884 1160.06 243.528 1159.52 242.73C1159 241.917 1158.11 241.51 1156.87 241.51C1155.54 241.51 1154.46 241.997 1153.61 242.97C1152.78 243.927 1152.37 245.203 1152.37 246.798V253.712H1152.65C1153.56 253.712 1154.24 253.936 1154.69 254.382C1155.14 254.813 1155.36 255.467 1155.36 256.344C1155.36 257.285 1155.13 257.963 1154.66 258.378C1154.2 258.793 1153.44 259 1152.37 259H1146.43C1145.37 259 1144.6 258.793 1144.14 258.378C1143.67 257.963 1143.44 257.285 1143.44 256.344C1143.44 255.467 1143.67 254.813 1144.11 254.382C1144.56 253.936 1145.24 253.712 1146.15 253.712H1146.43V242.132H1146.03C1145.17 242.132 1144.51 241.917 1144.07 241.486C1143.62 241.04 1143.4 240.394 1143.4 239.548C1143.4 238.607 1143.63 237.929 1144.09 237.515C1144.55 237.1 1145.33 236.893 1146.43 236.893H1150.5C1150.95 236.893 1151.28 236.98 1151.51 237.156C1151.75 237.331 1151.87 237.586 1151.87 237.921V239.788C1152.6 238.639 1153.53 237.778 1154.66 237.204C1155.81 236.613 1157.14 236.318 1158.64 236.318C1161.19 236.318 1163.09 237.092 1164.33 238.639C1165.59 240.186 1166.22 242.547 1166.22 245.721V253.712Z" fill="white"/>
<path d="M414.28 65.8863V151.963H385.915V65.8863H364V41H436.049V65.8863H414.28Z" fill="#FFA101"/>
<path d="M489.636 151.963V106.729C489.636 101.508 488.756 97.482 486.997 94.6518C484.798 91.0897 481.207 89.3086 476.223 89.3086C471.19 89.3086 467.525 90.8701 465.229 93.9931C463.274 96.6769 462.297 100.605 462.297 105.777V151.963H437.377V41H462.297V76.4263H462.59C464.642 72.7666 467.721 70.034 471.825 68.2285C475.343 66.667 479.423 65.8863 484.065 65.8863C493.936 65.8863 501.485 68.936 506.713 75.0356C510.28 79.1345 512.577 83.941 513.603 89.455C514.043 91.6508 514.312 94.2371 514.409 97.2136C514.458 98.3848 514.507 99.7511 514.556 101.313V151.963H489.636Z" fill="#FFA101"/>
<path d="M576.792 151.963V143.107H576.499C574.446 147.352 571.466 150.402 567.557 152.256C564.185 153.866 559.959 154.672 554.877 154.672C544.273 154.672 536.113 151.183 530.396 144.205C527.269 140.301 525.192 136.251 524.166 132.054C523.336 128.883 522.92 124.369 522.92 118.513V68.7409H547.841V114.78C547.841 120.148 548.671 124.101 550.333 126.638C552.385 129.81 556.001 131.396 561.18 131.396C570.708 131.396 575.473 125.76 575.473 114.488V68.7409H600.393V151.963H576.792Z" fill="#FFA101"/>
<path d="M695.245 110.316C695.245 123.003 690.945 133.543 682.345 141.936C673.794 150.329 663.117 154.525 650.315 154.525C637.513 154.525 626.861 150.329 618.359 141.936C609.759 133.543 605.459 123.003 605.459 110.316C605.459 97.5796 609.759 87.0152 618.359 78.6222C626.861 70.2291 637.513 66.0326 650.315 66.0326C663.117 66.0326 673.794 70.2291 682.345 78.6222C690.945 87.0152 695.245 97.5796 695.245 110.316ZM670.325 110.316C670.325 104.558 668.443 99.6535 664.681 95.6034C660.821 91.4069 656.032 89.3086 650.315 89.3086C644.647 89.3086 639.883 91.4069 636.023 95.6034C632.26 99.6535 630.379 104.558 630.379 110.316C630.379 116.025 632.26 120.929 636.023 125.028C639.883 129.175 644.647 131.249 650.315 131.249C656.032 131.249 660.821 129.175 664.681 125.028C668.443 120.929 670.325 116.025 670.325 110.316Z" fill="#FFA101"/>
<path d="M784.526 120.343C782.132 130.493 776.879 138.764 768.768 145.156C760.706 151.5 751.397 154.672 740.843 154.672C728.383 154.672 717.853 150.353 709.253 141.716C700.604 133.128 696.28 122.612 696.28 110.169C696.28 97.8236 700.506 87.3811 708.96 78.8417C717.462 70.2047 727.894 65.8863 740.257 65.8863C751.055 65.8863 760.535 69.0824 768.695 75.4748C777.002 81.9159 782.23 90.3821 784.38 100.873H759.167C755.551 93.0659 749.345 89.1622 740.55 89.1622C734.735 89.1622 730.044 91.2849 726.477 95.5302C723.057 99.5315 721.346 104.46 721.346 110.316C721.346 116.318 723.13 121.295 726.697 125.247C730.411 129.346 735.224 131.396 741.136 131.396C749.296 131.396 755.306 127.712 759.167 120.343H784.526Z" fill="#FFA101"/>
<path d="M886.277 151.963H857.032L819.945 41H849.043L871.398 118.806H871.765L894.266 41H923.511L886.277 151.963Z" fill="#FFA101"/>
<path d="M976.731 151.963V142.96H976.438C974.337 146.962 970.843 150.012 965.957 152.11C961.755 153.915 957.137 154.818 952.104 154.818C939.547 154.818 929.359 150.5 921.54 141.863C914.016 133.47 910.253 122.954 910.253 110.316C910.253 97.8724 914.089 87.4299 921.76 78.9881C929.725 70.2535 939.84 65.8863 952.104 65.8863C957.088 65.8863 961.682 66.8134 965.884 68.6677C970.575 70.7171 974.093 73.6937 976.438 77.5974H976.731V68.7409H1001.65V151.963H976.731ZM976.731 110.316C976.731 104.216 974.752 99.1655 970.794 95.1642C966.837 91.1629 961.828 89.1622 955.769 89.1622C949.759 89.1622 944.799 91.2605 940.89 95.457C937.079 99.5071 935.173 104.558 935.173 110.608C935.173 116.415 937.152 121.344 941.11 125.394C945.166 129.493 950.101 131.542 955.916 131.542C961.926 131.542 966.91 129.517 970.868 125.467C974.777 121.417 976.731 116.366 976.731 110.316Z" fill="#FFA101"/>
<path d="M1063.08 151.963V106.509C1063.08 101.093 1062.3 97.0673 1060.74 94.4322C1058.73 91.0165 1055.17 89.3086 1050.03 89.3086C1044.61 89.3086 1040.78 90.9677 1038.53 94.2859C1036.67 97.0185 1035.74 101.166 1035.74 106.729V151.963H1010.82V68.7409H1034.06V77.5974H1034.42C1039.21 69.79 1046.76 65.8863 1057.07 65.8863C1065.52 65.8863 1072.63 68.3017 1078.4 73.1325C1082.02 76.1579 1084.61 80.2324 1086.17 85.3561C1087.39 89.3574 1088 94.2127 1088 99.9219V151.963H1063.08Z" fill="#FFA101"/>
<path d="M1183 145.449C1182.95 146.718 1182.93 147.889 1182.93 148.962C1182.78 151.597 1182.58 153.964 1182.34 156.062C1181.61 161.235 1180.17 165.675 1178.02 169.384C1174.16 175.874 1168 180.875 1159.55 184.389C1152.17 187.463 1144.28 189 1135.87 189C1128.25 189 1121.43 187.78 1115.42 185.34C1108.63 182.559 1103.28 178.338 1099.37 172.678C1096.54 168.579 1094.83 164.26 1094.24 159.722H1123.12C1125.56 165.236 1130.4 167.993 1137.63 167.993C1151.17 167.993 1157.93 160.454 1157.93 145.376V142.814H1157.64C1155.54 146.669 1152.29 149.646 1147.89 151.744C1143.89 153.696 1139.51 154.672 1134.77 154.672C1122.51 154.672 1112.39 150.402 1104.43 141.863C1096.66 133.567 1092.77 123.247 1092.77 110.901C1092.77 98.3604 1096.61 87.8203 1104.28 79.2809C1112.25 70.4487 1122.41 66.0326 1134.77 66.0326C1139.51 66.0326 1143.81 66.8378 1147.67 68.4481C1152.17 70.3023 1155.54 73.0106 1157.79 76.5727H1158.08V68.7409H1183V145.449ZM1158.08 110.755C1158.08 104.606 1156.25 99.5315 1152.58 95.5302C1148.77 91.3825 1143.84 89.3086 1137.78 89.3086C1132.11 89.3086 1127.32 91.3581 1123.41 95.457C1119.6 99.4583 1117.69 104.314 1117.69 110.023C1117.69 115.927 1119.53 120.929 1123.19 125.028C1126.95 129.273 1131.77 131.396 1137.63 131.396C1143.64 131.396 1148.55 129.468 1152.36 125.613C1156.17 121.71 1158.08 116.757 1158.08 110.755Z" fill="#FFA101"/>
</svg>
